<?xml version="1.0" encoding="UTF-8" standalone="no"?>
<svg
   width="490.01913pt"
   height="490.00458pt"
   version="1.1"
   viewBox="0 0 490.01913 490.00458"
   id="svg12"
   sodipodi:docname="noun-call-5211031.svg"
   inkscape:version="1.1.1 (3bf5ae0d25, 2021-09-20)"
   xmlns:inkscape="http://www.inkscape.org/namespaces/inkscape"
   xmlns:sodipodi="http://sodipodi.sourceforge.net/DTD/sodipodi-0.dtd"
   xmlns="http://www.w3.org/2000/svg"
   xmlns:svg="http://www.w3.org/2000/svg">
  <defs
     id="defs16" />
  <sodipodi:namedview
     id="namedview14"
     pagecolor="#505050"
     bordercolor="#eeeeee"
     borderopacity="1"
     inkscape:pageshadow="0"
     inkscape:pageopacity="0"
     inkscape:pagecheckerboard="0"
     inkscape:document-units="pt"
     showgrid="false"
     fit-margin-top="0"
     fit-margin-left="0"
     fit-margin-right="0"
     fit-margin-bottom="0"
     inkscape:zoom="0.435"
     inkscape:cx="118.3908"
     inkscape:cy="542.52874"
     inkscape:window-width="1920"
     inkscape:window-height="992"
     inkscape:window-x="-8"
     inkscape:window-y="-8"
     inkscape:window-maximized="1"
     inkscape:current-layer="svg12" />
  <g
     id="g10"
     transform="translate(-105.00085,-34.998)">
    <path
       d="m 367.52,35 c -9.668,0 -17.5,7.8398 -17.5,17.516 0,9.6719 7.832,17.512 17.5,17.512 106.31,0 192.5,86.254 192.5,192.65 0,9.6758 7.832,17.516 17.5,17.516 9.6641,0 17.5,-7.8398 17.5,-17.516 0,-125.74 -101.86,-227.68 -227.5,-227.68 z"
       id="path2" />
    <path
       d="m 153.04,103.37 c 21.387,-21.27 55.965,-21 77.281,0.20703 l 48.754,48.492 c 20.859,20.75 21.965,54.223 2.1172,76.066 l -21.227,23.355 c -5.8125,6.3906 -6.6328,15.391 -2.4961,22.156 27.285,44.637 52.59,70.043 98.191,97.652 6.9023,4.1797 16.094,3.3242 22.555,-2.4844 l 23.48,-21.117 c 21.883,-19.676 55.355,-18.594 76.168,2.1055 l 48.305,48.047 c 21.625,21.512 21.902,56.48 0.21094,78.059 -52.195,51.922 -135.6,66.965 -198.19,24.129 -77.523,-53.059 -137.91,-114.09 -196.47,-197.88 -43.949,-62.887 -31.484,-146.27 21.316,-198.79 z"
       id="path4" />
    <path
       d="m 367.52,175.11 c -9.668,0 -17.5,7.8398 -17.5,17.512 0,9.6722 7.832,17.512 17.5,17.512 28.992,0 52.5,23.527 52.5,52.543 0,9.6758 7.832,17.516 17.5,17.516 9.6641,0 17.5,-7.8398 17.5,-17.516 0,-48.363 -39.176,-87.566 -87.5,-87.566 z"
       id="path6" />
    <path
       d="m 350.02,122.57 c 0,-9.6719 7.832,-17.516 17.5,-17.516 86.984,0 157.5,70.57 157.5,157.62 0,9.6758 -7.8359,17.516 -17.5,17.516 -9.668,0 -17.5,-7.8398 -17.5,-17.516 0,-67.707 -54.848,-122.6 -122.5,-122.6 -9.668,0 -17.5,-7.8398 -17.5,-17.512 z"
       id="path8" />
  </g>
</svg>
