<?xml version="1.0" encoding="UTF-8" standalone="no"?>
<svg
   width="1148.0284pt"
   height="1113.7739pt"
   version="1.1"
   viewBox="0 0 1148.0284 1113.7739"
   id="svg4"
   sodipodi:docname="noun-open-source-4256445.svg"
   inkscape:version="1.1.1 (3bf5ae0d25, 2021-09-20)"
   xmlns:inkscape="http://www.inkscape.org/namespaces/inkscape"
   xmlns:sodipodi="http://sodipodi.sourceforge.net/DTD/sodipodi-0.dtd"
   xmlns="http://www.w3.org/2000/svg"
   xmlns:svg="http://www.w3.org/2000/svg">
  <defs
     id="defs8" />
  <sodipodi:namedview
     id="namedview6"
     pagecolor="#505050"
     bordercolor="#eeeeee"
     borderopacity="1"
     inkscape:pageshadow="0"
     inkscape:pageopacity="0"
     inkscape:pagecheckerboard="0"
     inkscape:document-units="pt"
     showgrid="false"
     fit-margin-top="0"
     fit-margin-left="0"
     fit-margin-right="0"
     fit-margin-bottom="0"
     inkscape:zoom="0.25375"
     inkscape:cx="-195.07389"
     inkscape:cy="1237.4384"
     inkscape:window-width="1920"
     inkscape:window-height="992"
     inkscape:window-x="-8"
     inkscape:window-y="-8"
     inkscape:window-maximized="1"
     inkscape:current-layer="svg4" />
  <path
     d="m 363.1406,1106.563 18.188,7.2109 120.41,-302.20999 -18.266,-7.2109 c -53.801,-21.484 -98.434,-61.043 -126.23,-111.87 -27.797,-50.828 -37.016,-109.75 -26.078,-166.64 10.941,-56.887 41.355,-108.19 86.02,-145.08 44.664,-36.895 100.79,-57.074 158.71,-57.074 57.934,0 114.05,20.18 158.72,57.074 44.664,36.895 75.078,88.195 86.02,145.08 10.938,56.891 1.7188,115.81 -26.078,166.64 -27.797,50.824 -72.43,90.383 -126.23,111.87 l -18.188,7.2891 121.43,301.50999 18.188,-7.2109 c 129.23,-52.414 234.96,-150.07999 297.44,-274.75999 62.477,-124.68 77.434,-267.83 42.066,-402.73 -35.363,-134.89 -118.62,-252.3 -234.23,-330.290002 -115.61,-77.992 -255.65,-111.23 -393.98,-93.5040005 -138.32,17.7270005 -265.46,85.2030005 -357.67,189.8200025 -92.206998,104.62 -143.16999777,239.23 -143.37999777,378.68 -0.34766,115.16 34.14799977,227.74 98.95699977,322.94 C 163.7686,991.29221 255.8596,1064.6672 363.1296,1106.5572 Z M 574.8106,38.763008 c 122.65,-0.38281 241.69,41.449 337.14,118.470002 95.453,77.016 161.5,184.53 187.05,304.49 25.551,119.96 9.0508,245.05 -46.73,354.29 -55.7808,109.24 -147.45,195.94999 -259.61,245.57999 l -92.113,-229.14999 c 58.914,-28.445 106.42,-76.059 134.73,-135.04 28.309,-58.977 35.746,-125.82 21.086,-189.59 -14.66,-63.758 -50.543,-120.64 -101.77,-161.34 -51.227,-40.691 -114.75,-62.777 -180.18,-62.633 -65.422,0.14453 -128.86,22.508 -179.9,63.426 -51.047,40.918 -86.68,97.961 -101.06,161.79 -14.379,63.824 -6.6523,130.64 21.918,189.49 28.5703,58.85 76.285,106.26 135.32,134.44 l -91.254,229.61999 c -112.59,-49.188 -204.78,-135.67999 -261.049998,-244.89999 -56.27,-109.22 -73.176,-234.5 -47.867,-354.73 25.305,-120.23 91.276998,-228.06 186.799998,-305.33 95.523,-77.270002 214.76,-119.260002 337.62,-118.880002 z"
     id="path2" />
</svg>
