<?xml version="1.0" encoding="UTF-8" standalone="no"?>
<svg
   width="923"
   height="934"
   version="1.1"
   viewBox="0 0 692.25002 700.50002"
   id="svg160"
   sodipodi:docname="vote.svg"
   inkscape:version="1.1.1 (3bf5ae0d25, 2021-09-20)"
   xmlns:inkscape="http://www.inkscape.org/namespaces/inkscape"
   xmlns:sodipodi="http://sodipodi.sourceforge.net/DTD/sodipodi-0.dtd"
   xmlns:xlink="http://www.w3.org/1999/xlink"
   xmlns="http://www.w3.org/2000/svg"
   xmlns:svg="http://www.w3.org/2000/svg">
  <sodipodi:namedview
     id="namedview162"
     pagecolor="#505050"
     bordercolor="#eeeeee"
     borderopacity="1"
     inkscape:pageshadow="0"
     inkscape:pageopacity="0"
     inkscape:pagecheckerboard="0"
     inkscape:document-units="pt"
     showgrid="false"
     inkscape:snap-bbox="false"
     inkscape:zoom="0.08"
     inkscape:cx="-2862.5"
     inkscape:cy="-3875"
     inkscape:window-width="1918"
     inkscape:window-height="2054"
     inkscape:window-x="1900"
     inkscape:window-y="60"
     inkscape:window-maximized="0"
     inkscape:current-layer="svg160"
     units="px"
     width="933px" />
  <defs
     id="defs74">
    <linearGradient
       inkscape:collect="always"
       id="linearGradient320">
      <stop
         style="stop-color:#9f78ff;stop-opacity:1;"
         offset="0"
         id="stop316" />
      <stop
         style="stop-color:#f067ff;stop-opacity:1;"
         offset="1"
         id="stop318" />
    </linearGradient>
    <symbol
       id="w"
       overflow="visible">
      <path
         d="m 18.766,-1.125 c -0.96875,0.5 -1.9805,0.875 -3.0312,1.125 -1.043,0.25781 -2.1367,0.39062 -3.2812,0.39062 -3.3984,0 -6.0898,-0.94531 -8.0781,-2.8438 -1.9922,-1.9062 -2.9844,-4.4844 -2.9844,-7.7344 0,-3.2578 0.99219,-5.8359 2.9844,-7.7344 1.9883,-1.9062 4.6797,-2.8594 8.0781,-2.8594 1.1445,0 2.2383,0.13281 3.2812,0.39062 1.0508,0.25 2.0625,0.625 3.0312,1.125 v 4.2188 c -0.98047,-0.65625 -1.9453,-1.1406 -2.8906,-1.4531 -0.94922,-0.3125 -1.9492,-0.46875 -3,-0.46875 -1.875,0 -3.3516,0.60547 -4.4219,1.8125 -1.0742,1.1992 -1.6094,2.8555 -1.6094,4.9688 0,2.1055 0.53516,3.7617 1.6094,4.9688 1.0703,1.1992 2.5469,1.7969 4.4219,1.7969 1.0508,0 2.0508,-0.14844 3,-0.45312 0.94531,-0.3125 1.9102,-0.80078 2.8906,-1.4688 z"
         id="path2" />
    </symbol>
    <symbol
       id="b"
       overflow="visible">
      <path
         d="m 13.734,-11.141 c -0.4375,-0.19531 -0.87109,-0.34375 -1.2969,-0.4375 -0.41797,-0.10156 -0.83984,-0.15625 -1.2656,-0.15625 -1.2617,0 -2.2305,0.40625 -2.9062,1.2188 -0.67969,0.80469 -1.0156,1.9531 -1.0156,3.4531 v 7.0625 H 2.3591 v -15.312 h 4.8906 v 2.5156 c 0.625,-1 1.3438,-1.7266 2.1562,-2.1875 0.82031,-0.46875 1.8008,-0.70312 2.9375,-0.70312 0.16406,0 0.34375,0.01172 0.53125,0.03125 0.19531,0.01172 0.47656,0.03906 0.84375,0.07813 z"
         id="path5" />
    </symbol>
    <symbol
       id="a"
       overflow="visible">
      <path
         d="m 17.641,-7.7031 v 1.4062 H 6.188 c 0.125,1.1484 0.53906,2.0078 1.25,2.5781 0.70703,0.57422 1.7031,0.85938 2.9844,0.85938 1.0312,0 2.082,-0.14844 3.1562,-0.45312 1.082,-0.3125 2.1914,-0.77344 3.3281,-1.3906 v 3.7656 c -1.1562,0.4375 -2.3125,0.76562 -3.4688,0.98438 -1.1562,0.22656 -2.3125,0.34375 -3.4688,0.34375 -2.7734,0 -4.9297,-0.70312 -6.4688,-2.1094 -1.5312,-1.4062 -2.2969,-3.3789 -2.2969,-5.9219 0,-2.5 0.75391,-4.4609 2.2656,-5.8906 1.5078,-1.4375 3.582,-2.1562 6.2188,-2.1562 2.4062,0 4.332,0.73047 5.7812,2.1875 1.4453,1.4492 2.1719,3.3828 2.1719,5.7969 z m -5.0312,-1.625 c 0,-0.92578 -0.27344,-1.6719 -0.8125,-2.2344 -0.54297,-0.57031 -1.25,-0.85938 -2.125,-0.85938 -0.94922,0 -1.7188,0.26562 -2.3125,0.79688 -0.5937,0.53126 -0.96484,1.2969 -1.1094,2.2969 z"
         id="path8" />
    </symbol>
    <symbol
       id="f"
       overflow="visible">
      <path
         d="m 9.2188,-6.8906 c -1.0234,0 -1.793,0.17188 -2.3125,0.51562 -0.51172,0.34375 -0.76562,0.85547 -0.76562,1.5312 0,0.625 0.20703,1.1172 0.625,1.4688 0.41406,0.34375 0.98828,0.51562 1.7188,0.51562 0.92578,0 1.7031,-0.32812 2.3281,-0.98438 0.63281,-0.66406 0.95312,-1.4922 0.95312,-2.4844 v -0.5625 z m 7.4688,-1.8438 V 0 h -4.9219 v -2.2656 c -0.65625,0.92969 -1.3984,1.6055 -2.2188,2.0312 -0.82422,0.41406 -1.8242,0.625 -3,0.625 -1.5859,0 -2.8711,-0.45703 -3.8594,-1.375 -0.99219,-0.92578 -1.4844,-2.1289 -1.4844,-3.6094 0,-1.7891 0.61328,-3.1016 1.8438,-3.9375 1.2383,-0.84375 3.1797,-1.2656 5.8281,-1.2656 h 2.8906 v -0.39062 c 0,-0.76953 -0.30859,-1.332 -0.92188,-1.6875 -0.61719,-0.36328 -1.5703,-0.54688 -2.8594,-0.54688 -1.0547,0 -2.0312,0.10547 -2.9375,0.3125 -0.89844,0.21094 -1.7305,0.52344 -2.5,0.9375 v -3.7344 c 1.0391,-0.25 2.0859,-0.44141 3.1406,-0.57812 1.0625,-0.13281 2.125,-0.20312 3.1875,-0.20312 2.7578,0 4.75,0.54688 5.9688,1.6406 1.2266,1.0859 1.8438,2.8555 1.8438,5.3125 z"
         id="path11" />
    </symbol>
    <symbol
       id="d"
       overflow="visible">
      <path
         d="m 7.7031,-19.656 v 4.3438 H 12.75 v 3.5 H 7.7031 v 6.5 c 0,0.71094 0.14062,1.1875 0.42188,1.4375 0.28126,0.25 0.83594,0.375 1.6719,0.375 h 2.5156 v 3.5 h -4.1875 c -1.9375,0 -3.3125,-0.39844 -4.125,-1.2031 -0.80469,-0.8125 -1.2031,-2.1797 -1.2031,-4.1094 v -6.5 h -2.4219 v -3.5 h 2.4219 v -4.3438 z"
         id="path14" />
    </symbol>
    <symbol
       id="c"
       overflow="visible">
      <path
         d="m 12.766,-13.078 v -8.2031 h 4.9219 V -1e-4 H 12.766 v -2.2188 c -0.66797,0.90625 -1.4062,1.5703 -2.2188,1.9844 -0.8126,0.4141 -1.7578,0.625 -2.8281,0.625 -1.8867,0 -3.4336,-0.75 -4.6406,-2.25 -1.2109,-1.5 -1.8125,-3.4258 -1.8125,-5.7812 0,-2.3633 0.60156,-4.2969 1.8125,-5.7969 1.207,-1.5 2.7539,-2.25 4.6406,-2.25 1.0625,0 2,0.21484 2.8125,0.64062 0.82031,0.42969 1.5664,1.0859 2.2344,1.9688 z m -3.2188,9.9219 c 1.0391,0 1.8359,-0.37891 2.3906,-1.1406 0.55078,-0.76953 0.82812,-1.8828 0.82812,-3.3438 0,-1.457 -0.27734,-2.5664 -0.82812,-3.3281 -0.55469,-0.76953 -1.3516,-1.1562 -2.3906,-1.1562 -1.043,0 -1.8398,0.38672 -2.3906,1.1562 -0.55469,0.76172 -0.82812,1.8711 -0.82812,3.3281 0,1.4609 0.27344,2.5742 0.82812,3.3438 0.55078,0.76172 1.3477,1.1406 2.3906,1.1406 z"
         id="path17" />
    </symbol>
    <symbol
       id="k"
       overflow="visible">
      <path
         d="m 10.5,-3.1562 c 1.0508,0 1.8516,-0.37891 2.4062,-1.1406 0.55078,-0.76953 0.82812,-1.8828 0.82812,-3.3438 0,-1.457 -0.27734,-2.5664 -0.82812,-3.3281 -0.55469,-0.76953 -1.3555,-1.1562 -2.4062,-1.1562 -1.0547,0 -1.8594,0.38672 -2.4219,1.1562 -0.55469,0.77344 -0.82812,1.8828 -0.82812,3.3281 0,1.4492 0.27344,2.5586 0.82812,3.3281 0.5625,0.77344 1.3672,1.1562 2.4219,1.1562 z m -3.25,-9.9219 c 0.67578,-0.88281 1.4219,-1.5391 2.2344,-1.9688 0.82031,-0.42578 1.7656,-0.64062 2.8281,-0.64062 1.8945,0 3.4453,0.75 4.6562,2.25 1.207,1.5 1.8125,3.4336 1.8125,5.7969 0,2.3555 -0.60547,4.2812 -1.8125,5.7812 -1.2109,1.5 -2.7617,2.25 -4.6562,2.25 -1.0625,0 -2.0078,-0.21094 -2.8281,-0.625 C 8.6719,-0.6602 7.9258,-1.32032 7.25,-2.21882 V -2e-5 H 2.3594 v -21.281 H 7.25 Z"
         id="path20" />
    </symbol>
    <symbol
       id="j"
       overflow="visible">
      <path
         d="m 0.34375,-15.312 h 4.8906 l 4.125,10.391 3.5,-10.391 h 4.8906 l -6.4375,16.766 c -0.64844,1.6953 -1.4023,2.8828 -2.2656,3.5625 -0.86719,0.6875 -2,1.0312 -3.4062,1.0312 H 2.79685 V 2.8289 h 1.5312 c 0.83203,0 1.4375,-0.13672 1.8125,-0.40625 C 6.52336,2.16093 6.82024,1.69218 7.03117,1.01645 L 7.17179,0.59457 Z"
         id="path23" />
    </symbol>
    <symbol
       id="i"
       overflow="visible">
      <path
         d="m 2.5781,-20.406 h 5.25 v 7.7656 h 7.7656 v -7.7656 h 5.2656 V 0 H 15.5937 V -8.6562 H 7.8281 V 0 h -5.25 z"
         id="path26" />
    </symbol>
    <symbol
       id="h"
       overflow="visible">
      <path
         d="m 14.312,-14.828 v 3.7188 c -1.043,-0.4375 -2.0547,-0.76562 -3.0312,-0.98438 -0.98047,-0.21875 -1.9023,-0.32812 -2.7656,-0.32812 -0.92969,0 -1.6211,0.11719 -2.0781,0.34375 -0.44922,0.23047 -0.67188,0.58984 -0.67188,1.0781 0,0.38672 0.17188,0.68359 0.51562,0.89062 0.34375,0.21094 0.95703,0.36719 1.8438,0.46875 l 0.85938,0.125 c 2.5078,0.32422 4.1953,0.85156 5.0625,1.5781 0.86328,0.73047 1.2969,1.8711 1.2969,3.4219 0,1.6367 -0.60547,2.8672 -1.8125,3.6875 -1.1992,0.8125 -2.9922,1.2188 -5.375,1.2188 -1.0234,0 -2.0742,-0.078125 -3.1562,-0.23438 -1.0742,-0.15625 -2.1797,-0.39453 -3.3125,-0.71875 v -3.7188 c 0.96875,0.48047 1.9609,0.83984 2.9844,1.0781 1.0312,0.23047 2.0781,0.34375 3.1406,0.34375 0.95703,0 1.6758,-0.12891 2.1562,-0.39062 0.47656,-0.26953 0.71875,-0.66406 0.71875,-1.1875 0,-0.4375 -0.16797,-0.75781 -0.5,-0.96875 -0.33594,-0.21875 -0.99609,-0.38281 -1.9844,-0.5 L 7.34339,-6.01551 c -2.1797,-0.26953 -3.7031,-0.77344 -4.5781,-1.5156 -0.875,-0.73828 -1.3125,-1.8594 -1.3125,-3.3594 0,-1.625 0.55078,-2.8281 1.6562,-3.6094 1.1133,-0.78906 2.8203,-1.1875 5.125,-1.1875 0.89453,0 1.8359,0.07422 2.8281,0.21875 1,0.13672 2.082,0.35156 3.25,0.64062 z"
         id="path29" />
    </symbol>
    <symbol
       id="v"
       overflow="visible">
      <path
         d="m 11.891,-16.969 c -1.6055,0 -2.8516,0.59375 -3.7344,1.7812 -0.875,1.1875 -1.3125,2.8555 -1.3125,5 0,2.1484 0.4375,3.8125 1.3125,5 0.88281,1.1797 2.1289,1.7656 3.7344,1.7656 1.6133,0 2.8633,-0.58594 3.75,-1.7656 0.88281,-1.1875 1.3281,-2.8516 1.3281,-5 0,-2.1445 -0.44531,-3.8125 -1.3281,-5 -0.88672,-1.1875 -2.1367,-1.7812 -3.75,-1.7812 z m 0,-3.8125 c 3.2812,0 5.8477,0.9375 7.7031,2.8125 1.8633,1.875 2.7969,4.4688 2.7969,7.7812 0,3.3047 -0.93359,5.8906 -2.7969,7.7656 -1.8555,1.875 -4.4219,2.8125 -7.7031,2.8125 -3.2734,0 -5.8398,-0.9375 -7.7031,-2.8125 -1.8672,-1.875 -2.7969,-4.4609 -2.7969,-7.7656 0,-3.3125 0.92969,-5.9062 2.7969,-7.7812 1.8633,-1.875 4.4297,-2.8125 7.7031,-2.8125 z"
         id="path32" />
    </symbol>
    <symbol
       id="g"
       overflow="visible">
      <path
         d="m 12.422,-21.281 v 3.2188 H 9.7189 c -0.6875,0 -1.1719,0.125 -1.4531,0.375 -0.27344,0.25 -0.40625,0.6875 -0.40625,1.3125 v 1.0625 h 4.1875 v 3.5 H 7.85955 V -2e-4 h -4.8906 v -11.812 h -2.4375 v -3.5 h 2.4375 v -1.0625 c 0,-1.6641 0.46094,-2.8984 1.3906,-3.7031 0.92578,-0.80078 2.3672,-1.2031 4.3281,-1.2031 z"
         id="path35" />
    </symbol>
    <symbol
       id="u"
       overflow="visible">
      <path
         d="m 10.75,-12.516 c 0.82031,0 1.4453,-0.17969 1.875,-0.54688 0.4375,-0.36328 0.65625,-0.89844 0.65625,-1.6094 0,-0.69531 -0.21875,-1.2266 -0.65625,-1.5938 -0.42969,-0.375 -1.0547,-0.5625 -1.875,-0.5625 H 7.8281 v 4.3125 z m 0.17188,8.9375 c 1.0625,0 1.8594,-0.22266 2.3906,-0.67188 0.53125,-0.44531 0.79688,-1.125 0.79688,-2.0312 0,-0.88281 -0.26562,-1.5469 -0.79688,-1.9844 -0.52344,-0.4375 -1.3203,-0.65625 -2.3906,-0.65625 h -3.0938 v 5.3438 z m 4.8906,-7.3438 c 1.1328,0.32422 2.0078,0.92969 2.625,1.8125 0.625,0.88672 0.9375,1.9688 0.9375,3.25 0,1.9688 -0.66797,3.4375 -2,4.4062 -1.3359,0.96875 -3.3555,1.4531 -6.0625,1.4531 h -8.7344 v -20.406 h 7.8906 c 2.832,0 4.8828,0.42969 6.1562,1.2812 1.2812,0.85547 1.9219,2.2266 1.9219,4.1094 0,1 -0.23438,1.8516 -0.70312,2.5469 -0.46875,0.6875 -1.1484,1.2031 -2.0312,1.5469 z"
         id="path38" />
    </symbol>
    <symbol
       id="t"
       overflow="visible">
      <path
         d="M 2.3594,-15.312 H 7.25 V 0 H 2.3594 Z m 0,-5.9688 H 7.25 v 4 H 2.3594 Z"
         id="path41" />
    </symbol>
    <symbol
       id="e"
       overflow="visible">
      <path
         d="m 9.6406,-12.188 c -1.0859,0 -1.9141,0.39062 -2.4844,1.1719 -0.57422,0.78125 -0.85938,1.9062 -0.85938,3.375 0,1.4688 0.28516,2.5938 0.85938,3.375 0.57031,0.77344 1.3984,1.1562 2.4844,1.1562 1.0625,0 1.875,-0.38281 2.4375,-1.1562 0.57031,-0.78125 0.85938,-1.9062 0.85938,-3.375 0,-1.4688 -0.28906,-2.5938 -0.85938,-3.375 -0.5625,-0.78125 -1.375,-1.1719 -2.4375,-1.1719 z m 0,-3.5 c 2.6328,0 4.6914,0.71484 6.1719,2.1406 1.4766,1.418 2.2188,3.3867 2.2188,5.9062 0,2.5117 -0.74219,4.4805 -2.2188,5.9062 C 14.332,-0.317 12.2734,0.39 9.6406,0.39 6.9922,0.39 4.9258,-0.31703 3.4375,-1.735 1.9453,-3.1608 1.2031,-5.1295 1.2031,-7.6412 c 0,-2.5195 0.74219,-4.4883 2.2344,-5.9062 1.4883,-1.4258 3.5547,-2.1406 6.2031,-2.1406 z"
         id="path44" />
    </symbol>
    <symbol
       id="s"
       overflow="visible">
      <path
         d="m 16.547,-12.766 c 0.61328,-0.94531 1.3477,-1.6719 2.2031,-2.1719 0.85156,-0.5 1.7891,-0.75 2.8125,-0.75 1.7578,0 3.0977,0.54688 4.0156,1.6406 0.92578,1.0859 1.3906,2.6562 1.3906,4.7188 V -4e-4 h -4.9219 v -7.9844 -0.35938 c 0.0078,-0.13281 0.01563,-0.32031 0.01563,-0.5625 0,-1.082 -0.16406,-1.8633 -0.48438,-2.3438 -0.3125,-0.48828 -0.82422,-0.73438 -1.5312,-0.73438 -0.92969,0 -1.6484,0.38672 -2.1562,1.1562 -0.51172,0.76172 -0.77344,1.8672 -0.78125,3.3125 v 7.5156 h -4.9219 v -7.9844 c 0,-1.6953 -0.14844,-2.7852 -0.4375,-3.2656 -0.29297,-0.48828 -0.8125,-0.73438 -1.5625,-0.73438 -0.9375,0 -1.6641,0.38672 -2.1719,1.1562 -0.51172,0.76172 -0.76562,1.8594 -0.76562,3.2969 v 7.5312 h -4.9219 v -15.312 h 4.9219 v 2.2344 c 0.60156,-0.86328 1.2891,-1.5156 2.0625,-1.9531 0.78125,-0.4375 1.6406,-0.65625 2.5781,-0.65625 1.0625,0 2,0.25781 2.8125,0.76562 0.8125,0.51172 1.4258,1.2305 1.8438,2.1562 z"
         id="path47" />
    </symbol>
    <symbol
       id="r"
       overflow="visible">
      <path
         d="M 17.75,-9.3281 V 0 h -4.9219 v -7.1094 c 0,-1.3438 -0.03125,-2.2656 -0.09375,-2.7656 -0.0625,-0.5 -0.16797,-0.86719 -0.3125,-1.1094 -0.1875,-0.3125 -0.44922,-0.55469 -0.78125,-0.73438 -0.32422,-0.17578 -0.69531,-0.26562 -1.1094,-0.26562 -1.0234,0 -1.8242,0.39844 -2.4062,1.1875 -0.58594,0.78125 -0.875,1.8711 -0.875,3.2656 V -1e-4 H 2.3594 v -21.281 H 7.25 v 8.2031 c 0.73828,-0.88281 1.5195,-1.5391 2.3438,-1.9688 0.83203,-0.42578 1.75,-0.64062 2.75,-0.64062 1.7695,0 3.1133,0.54688 4.0312,1.6406 0.91406,1.0859 1.375,2.6562 1.375,4.7188 z"
         id="path50" />
    </symbol>
    <symbol
       id="q"
       overflow="visible">
      <path
         d="m 2.5781,-20.406 h 5.875 l 7.4219,14 v -14 h 4.9844 V 0 h -5.875 L 7.5625,-14 V 0 H 2.5781 Z"
         id="path53" />
    </symbol>
    <symbol
       id="p"
       overflow="visible">
      <path
         d="m 2.1875,-5.9688 v -9.3438 h 4.9219 v 1.5312 c 0,0.83594 -0.00781,1.875 -0.015625,3.125 -0.011719,1.25 -0.015625,2.0859 -0.015625,2.5 0,1.2422 0.03125,2.1328 0.09375,2.6719 0.070313,0.54297 0.17969,0.93359 0.32812,1.1719 0.20703,0.32422 0.47266,0.57422 0.79688,0.75 0.32031,0.16797 0.69141,0.25 1.1094,0.25 1.0195,0 1.8203,-0.39062 2.4062,-1.1719 0.58203,-0.78125 0.875,-1.8672 0.875,-3.2656 v -7.5625 h 4.8906 V -6e-4 H 12.6875 V -2.2194 C 11.94531,-1.32096 11.1641,-0.6608 10.3437,-0.235 9.51948,0.17906 8.6093,0.39 7.6093,0.39 5.8476,0.39 4.5038,-0.14906 3.5781,-1.235 2.64841,-2.317 2.1875,-3.8952 2.1875,-5.9694 Z"
         id="path56" />
    </symbol>
    <symbol
       id="o"
       overflow="visible">
      <path
         d="M 17.75,-9.3281 V 0 h -4.9219 v -7.1406 c 0,-1.3203 -0.03125,-2.2344 -0.09375,-2.7344 -0.0625,-0.5 -0.16797,-0.86719 -0.3125,-1.1094 -0.1875,-0.3125 -0.44922,-0.55469 -0.78125,-0.73438 -0.32422,-0.17578 -0.69531,-0.26562 -1.1094,-0.26562 -1.0234,0 -1.8242,0.39844 -2.4062,1.1875 -0.58594,0.78125 -0.875,1.8711 -0.875,3.2656 V -1e-4 H 2.3594 v -15.312 H 7.25 v 2.2344 c 0.73828,-0.88281 1.5195,-1.5391 2.3438,-1.9688 0.83203,-0.42578 1.75,-0.64062 2.75,-0.64062 1.7695,0 3.1133,0.54688 4.0312,1.6406 0.91406,1.0859 1.375,2.6562 1.375,4.7188 z"
         id="path59" />
    </symbol>
    <symbol
       id="n"
       overflow="visible">
      <path
         d="m 2.5781,-20.406 h 8.7344 c 2.5938,0 4.582,0.57812 5.9688,1.7344 1.3945,1.1484 2.0938,2.7891 2.0938,4.9219 0,2.1367 -0.69922,3.7812 -2.0938,4.9375 -1.3867,1.1562 -3.375,1.7344 -5.9688,1.7344 H 7.8281 V 3e-4 h -5.25 z m 5.25,3.8125 v 5.7031 H 10.75 c 1.0195,0 1.8047,-0.25 2.3594,-0.75 0.5625,-0.5 0.84375,-1.2031 0.84375,-2.1094 0,-0.91406 -0.28125,-1.6172 -0.84375,-2.1094 -0.55469,-0.48828 -1.3398,-0.73438 -2.3594,-0.73438 z"
         id="path62" />
    </symbol>
    <symbol
       id="m"
       overflow="visible">
      <path
         d="M 2.3594,-15.312 H 7.25 v 15.031 c 0,2.0508 -0.49609,3.6172 -1.4844,4.7031 -0.98047,1.082 -2.4062,1.625 -4.2812,1.625 H -0.9375 V 2.8283 h 0.85938 c 0.92578,0 1.5625,-0.21094 1.9062,-0.625 0.35156,-0.41797 0.53125,-1.2461 0.53125,-2.4844 z m 0,-5.9688 H 7.25 v 4 H 2.3594 Z"
         id="path65" />
    </symbol>
    <symbol
       id="l"
       overflow="visible">
      <path
         d="m 14.719,-14.828 v 3.9844 c -0.65625,-0.45703 -1.3242,-0.79688 -2,-1.0156 -0.66797,-0.21875 -1.3594,-0.32812 -2.0781,-0.32812 -1.3672,0 -2.4336,0.40234 -3.2031,1.2031 -0.76172,0.79297 -1.1406,1.9062 -1.1406,3.3438 0,1.4297 0.37891,2.543 1.1406,3.3438 0.76953,0.79297 1.8359,1.1875 3.2031,1.1875 0.75781,0 1.4844,-0.10938 2.1719,-0.32812 0.6875,-0.22656 1.3203,-0.56641 1.9062,-1.0156 v 4 c -0.76172,0.28125 -1.5391,0.48828 -2.3281,0.625 -0.78125,0.14453 -1.5742,0.21875 -2.375,0.21875 -2.7617,0 -4.9219,-0.70703 -6.4844,-2.125 -1.5547,-1.4141 -2.3281,-3.3828 -2.3281,-5.9062 0,-2.5312 0.77344,-4.5039 2.3281,-5.9219 1.5625,-1.4141 3.7227,-2.125 6.4844,-2.125 0.80078,0 1.5938,0.07422 2.375,0.21875 0.78125,0.13672 1.5547,0.35156 2.3281,0.64062 z"
         id="path68" />
    </symbol>
    <clipPath
       id="x">
      <path
         d="M 103.14,30.277 H 597 v 499.45 H 103.14 Z"
         id="path71" />
    </clipPath>
    <linearGradient
       inkscape:collect="always"
       xlink:href="#linearGradient320"
       id="linearGradient322"
       x1="361.14169"
       y1="34.936466"
       x2="361.14169"
       y2="533.00061"
       gradientUnits="userSpaceOnUse" />
    <linearGradient
       id="linear-gradient"
       x1="27.147499"
       x2="27.147499"
       y2="54.294998"
       gradientUnits="userSpaceOnUse"
       y1="0"
       gradientTransform="matrix(0.75,0,0,0.75,402.44387,114.09343)">
      <stop
         offset="0"
         stop-color="#9f78ff"
         id="stop2" />
      <stop
         offset="1"
         stop-color="#f067ff"
         id="stop4" />
    </linearGradient>
  </defs>
  <g
     clip-path="url(#x)"
     id="g78"
     transform="matrix(1.40196,0,0,1.40196,-144.65446,-42.305755)">
    <path
       d="m 589.44,282.53 c -1.5156,-0.67578 -3.2031,-1.1797 -4.8867,-1.1797 -4.2109,0 -8.2578,2.3594 -10.785,6.4023 l -19.039,33.531 c 0,0 -1.8555,-0.50391 -5.0547,-0.67578 l 13.48,-95.711 c 1.6836,-7.0781 -2.1914,-13.984 -8.4258,-15.84 l -1.5156,-0.33594 c -6.4023,-1.6836 -12.977,2.6953 -14.828,9.7734 l -10.277,62.008 -8.2578,-1.5156 6.2344,-77.008 c 1.0117,-7.2461 -3.5391,-13.816 -9.9414,-14.828 l -0.67578,0.17578 c -6.4023,-0.84375 -12.469,4.043 -13.648,11.121 l -8.4258,77.68 -8.2578,0.33594 2.5273,-64.875 c 0.16797,-1.3477 0,-2.5273 -0.16797,-3.707 5.2227,-35.723 8.5938,-74.141 8.9297,-79.871 2.6953,-12.133 -4.043,-24.266 -15.672,-28.645 -6.4023,-2.5273 -13.648,-2.0234 -19.883,1.0117 -6.2344,3.0312 -10.785,8.5938 -12.805,15.164 0,0.33594 -0.16797,0.67578 -0.16797,0.84375 l -6.5703,35.891 6.0664,-71.109 v -0.33594 c 0.84375,-14.492 -9.9414,-26.961 -24.266,-28.309 -7.2461,-0.67578 -14.492,1.5156 -20.051,6.0664 -5.5625,4.7188 -8.9297,11.121 -9.6055,18.535 l -4.3828,38.586 2.0234,-58.473 V 56.7324 c -0.50391,-14.828 -12.301,-26.285 -27.129,-26.285 h -1.1797 c -14.828,0 -26.961,11.965 -27.129,26.793 l -4.5508,68.918 -1.3477,-48.527 v -0.67578 c -0.84375,-7.2461 -4.3828,-13.648 -10.109,-18.199 -5.7305,-4.5508 -12.805,-6.5703 -19.883,-5.7305 l -2.3594,0.33594 c -14.324,1.6836 -24.938,14.66 -23.926,28.984 v 113.4 l -13.984,-31.848 c 0,-0.16797 -0.16797,-0.16797 -0.16797,-0.33594 -6.0664,-12.301 -19.883,-18.535 -33.027,-14.828 -14.496,3.875 -23.258,18.875 -19.551,33.703 l 0.50391,2.3594 c 3.875,15.164 7.4141,29.824 10.785,41.789 l 5.8984,43.98 -9.0977,0.84375 -16.176,-76.164 c -1.8555,-6.9102 -9.0977,-10.953 -16.008,-9.2695 l -0.67578,0.16797 c -7.0781,1.6836 -11.457,8.9297 -9.6055,16.008 l 13.816,75.828 -8.9297,2.5273 -17.02,-60.492 c -2.5273,-6.9102 -10.277,-10.277 -17.02,-7.75 l -1.5156,0.67578 c -6.7383,2.5273 -10.277,9.9414 -7.75,16.852 l 23.422,93.352 c -3.5391,0.67578 -5.5625,1.3477 -5.5625,1.3477 l -23.926,-30.836 c -2.6953,-3.2031 -6.7383,-5.0547 -10.785,-5.0547 -2.3594,0 -4.7188,0.67578 -6.9102,1.8555 -6.5703,3.707 -8.9297,12.133 -5.3906,18.871 7.75,14.324 20.051,37.578 24.77,44.148 7.918,10.953 15.672,20.219 24.098,27.129 8.4258,6.9102 17.523,11.457 28.477,13.145 l 4.043,16.176 c -0.33594,0 -0.67578,0.16797 -0.84375,0.33594 -23.086,8.5938 -22.41,17.188 -21.57,20.727 0,0.16797 0.16797,0.50391 0.16797,0.67578 l 24.602,92.004 c 1.0117,3.707 4.3828,6.2344 8.0898,6.2344 0.67578,0 1.5156,0 2.1914,-0.33594 4.5508,-1.1797 7.2461,-5.7305 5.8984,-10.277 l -21.062,-79.195 c 3.0312,-0.16797 5.8984,-0.50391 8.2578,-0.84375 11.797,-1.5156 27.973,-4.7188 46.676,-9.4375 6.9102,-1.6836 13.145,-3.3711 18.871,-5.0547 v 96.555 c 0,4.7188 3.707,8.4258 8.4258,8.4258 4.7188,0 8.4258,-3.707 8.4258,-8.4258 v -142.72 c 0.33594,0.16797 0.67578,0.16797 1.0117,0.33594 2.8633,0.67578 6.0664,1.3477 9.9414,2.1914 3.3711,0.67578 6.9102,1.3477 10.953,2.0234 8.9297,1.5156 19.547,2.8633 31.34,3.875 17.188,1.3477 37.07,1.8555 58.641,0 10.617,-0.84375 21.738,-2.1914 33.195,-4.2109 4.043,-0.67578 8.0898,-1.5156 12.133,-2.3594 1.0117,-0.16797 1.8555,-0.50391 2.8633,-0.67578 v 141.54 c 0,4.7188 3.707,8.4258 8.4258,8.4258 4.7188,0 8.4258,-3.707 8.4258,-8.4258 v -90.992 c 8.9297,2.0234 20.391,4.043 34.207,6.0664 17.355,2.3594 32.184,3.707 43.137,3.707 h 1.3477 c 1.5156,0 3.3711,0 5.2227,-0.16797 l -11.965,80.039 c -0.67578,4.5508 2.5273,8.9297 7.0781,9.6055 h 1.1797 c 4.043,0 7.75,-3.0312 8.2578,-7.2461 l 13.984,-93.016 v -0.33594 -0.33594 -0.50391 -0.50391 c 0.33594,-7.582 -6.9102,-13.48 -21.738,-17.523 -0.33594,-0.16797 -0.67578,-0.16797 -1.1797,-0.16797 l 2.3594,-16.512 c 9.6055,-3.0312 17.523,-8.5938 24.602,-16.512 7.0781,-7.75 13.312,-17.863 19.547,-29.824 3.707,-7.0781 12.977,-31.68 18.703,-46.844 2.5312,-6.7656 -0.16406,-14.688 -6.5703,-17.719 z M 479.74,124.64 c -0.16797,0.50391 -0.16797,0.84375 -0.16797,1.3477 0,0.67578 -3.0312,37.07 -7.918,72.625 -3.0312,21.57 -6.5703,42.801 -10.785,55.27 -0.33594,1.1797 -0.67578,2.1914 -1.1797,3.2031 -3.3711,8.7617 -6.4023,15.84 -9.6055,21.738 -6.5703,12.133 -13.48,19.715 -24.602,28.477 -2.0234,1.6836 -4.2109,3.3711 -6.5703,5.0547 -2.1914,1.5156 -3.3711,4.043 -3.3711,6.7383 v 47.012 c -11.121,2.0234 -22.074,3.3711 -32.52,4.043 -7.75,0.16797 -16.684,0.33594 -26.793,0.33594 -8.9297,0 -17.02,-0.16797 -24.434,-0.33594 -11.965,-0.84375 -22.746,-2.1914 -31.848,-3.707 v -44.316 c 0,-3.3711 -2.0234,-6.4023 -5.0547,-7.75 -0.67578,-0.33594 -1.5156,-0.67578 -2.1914,-1.0117 -15.5,-7.0781 -26.793,-19.211 -36.059,-35.047 -1.3477,-2.3594 -2.6953,-4.7188 -4.043,-7.2461 -3.875,-7.582 -7.582,-16.008 -11.121,-24.938 -3.2031,-8.2578 -9.9414,-34.375 -15.164,-54.934 -1.0117,-3.707 -1.8555,-7.2461 -2.6953,-10.617 l -0.67578,-2.3594 c -1.5156,-6.0664 2.0234,-11.965 7.918,-13.648 5.2227,-1.5156 10.785,1.0117 13.312,5.8984 l 20.051,45.496 2.1914,4.8867 c 1.5156,3.3711 5.0547,5.3906 8.7617,5.0547 0,0 3.2031,-0.33594 8.2578,0.16797 4.2109,0.50391 9.9414,1.5156 16.008,3.875 7.2461,3.0312 12.637,6.5703 12.805,6.5703 3.875,2.5273 9.0977,1.5156 11.625,-2.3594 2.5273,-3.875 1.5156,-9.0977 -2.3594,-11.625 -6.0664,-4.043 -12.133,-6.9102 -17.691,-8.9297 -4.043,-1.5156 -8.5938,-2.8633 -13.312,-3.707 l -0.16797,-128.06 v -0.84375 c -0.50391,-5.5625 3.5391,-10.445 8.9297,-11.121 l 2.3594,-0.33594 c 2.6953,-0.33594 5.3906,0.50391 7.582,2.1914 2.0234,1.6836 3.3711,4.043 3.707,6.5703 l 2.5273,87.961 c 0,2.1914 1.0117,4.3828 2.6953,5.8984 1.6836,1.5156 3.875,2.3594 6.0664,2.3594 l 13.145,-0.33594 c 4.3828,-0.16797 7.918,-3.5391 8.0898,-7.918 l 7.0781,-108.35 v -0.50391 c 0,-5.5625 4.5508,-10.277 10.277,-10.277 h 1.0117 c 5.5625,0 9.9414,4.2109 10.277,9.7734 l -3.875,109.18 c -0.16797,4.2109 2.8633,7.918 7.0781,8.5938 l 12.805,2.0234 c 2.1914,0.33594 4.5508,-0.16797 6.4023,-1.5156 1.8555,-1.3477 3.0312,-3.5391 3.2031,-5.7305 l 10.277,-90.656 v -0.33594 c 0.16797,-2.6953 1.5156,-5.2227 3.707,-7.0781 2.1914,-1.8554 4.7188,-2.5273 7.582,-2.3594 5.3906,0.50391 9.4375,5.2227 9.0977,10.617 l -9.2695,108.01 c -0.33594,3.707 1.6836,7.0781 5.0547,8.4258 l 12.469,5.3906 c 2.3594,1.0117 5.0547,0.84375 7.2461,-0.33594 2.1914,-1.17969 3.875,-3.3711 4.3828,-5.8984 l 13.984,-75.488 c 0.67578,-2.0234 2.1914,-3.707 4.043,-4.5508 2.0234,-1.0117 4.3828,-1.1797 6.5703,-0.33594 3.7148,1.6836 5.9062,5.7266 4.8945,9.7734 z"
       id="path76"
       style="fill:url(#linearGradient322);fill-opacity:1" />
  </g>
</svg>
