<svg xmlns="http://www.w3.org/2000/svg" viewBox="0 0 730.52 686"><defs><style>.cls-1{fill:#f33;}</style></defs><g id="Layer_2" data-name="Layer 2"><g id="_4" data-name="4"><path class="cls-1" d="M207.07,408.27,313.59,223.76c23-39.77,80.37-39.77,103.34,0L523.45,408.27c17.23,29.83-4.3,67.12-38.75,67.12H245.82C211.37,475.39,189.85,438.1,207.07,408.27Zm515.46-76.42L569.73,67.19a59.66,59.66,0,0,0-51.67-29.83h-51.4c0,.23,0,.45,0,.67a101.08,101.08,0,0,1-32,73.91l182,315.14a101.33,101.33,0,0,1,79.92,9.45l26-45A59.65,59.65,0,0,0,722.53,331.85ZM113.91,427.07,295.85,111.94a101.12,101.12,0,0,1-32-73.91c0-.22,0-.44,0-.67h-51.4a59.67,59.67,0,0,0-51.67,29.83L8,331.85a59.7,59.7,0,0,0,0,59.66l26,45a101.41,101.41,0,0,1,79.92-9.46ZM546.75,546.66h-363a101.56,101.56,0,0,1-48.38,65.52l25.4,44A59.67,59.67,0,0,0,212.46,686h305.6a59.66,59.66,0,0,0,51.67-29.83l25.4-44A101.56,101.56,0,0,1,546.75,546.66ZM365.26,76.06a38,38,0,1,0-38-38A38,38,0,0,0,365.26,76.06Zm280.4,410.16a38,38,0,1,0,38,38A38,38,0,0,0,645.66,486.22Zm-560.8,0a38,38,0,1,0,38,38A38,38,0,0,0,84.86,486.22Z"/></g></g></svg>
