<?xml version="1.0" encoding="UTF-8" standalone="no"?>
<svg
   width="530.52197pt"
   height="524.43488pt"
   version="1.1"
   viewBox="0 0 530.52197 524.43488"
   id="svg136"
   sodipodi:docname="noun-content-management-system-5159018.svg"
   inkscape:version="1.1.1 (3bf5ae0d25, 2021-09-20)"
   xmlns:inkscape="http://www.inkscape.org/namespaces/inkscape"
   xmlns:sodipodi="http://sodipodi.sourceforge.net/DTD/sodipodi-0.dtd"
   xmlns="http://www.w3.org/2000/svg"
   xmlns:svg="http://www.w3.org/2000/svg">
  <sodipodi:namedview
     id="namedview138"
     pagecolor="#505050"
     bordercolor="#eeeeee"
     borderopacity="1"
     inkscape:pageshadow="0"
     inkscape:pageopacity="0"
     inkscape:pagecheckerboard="0"
     inkscape:document-units="pt"
     showgrid="false"
     fit-margin-top="0"
     fit-margin-left="0"
     fit-margin-right="0"
     fit-margin-bottom="0"
     inkscape:zoom="0.435"
     inkscape:cx="-357.47126"
     inkscape:cy="305.74713"
     inkscape:window-width="1920"
     inkscape:window-height="992"
     inkscape:window-x="-8"
     inkscape:window-y="-8"
     inkscape:window-maximized="1"
     inkscape:current-layer="g134" />
  <defs
     id="defs62">
    <symbol
       id="t"
       overflow="visible">
      <path
         d="m 19.734,-1.1875 c -1.0117,0.53125 -2.0703,0.93359 -3.1719,1.2031 -1.1055,0.26953 -2.2578,0.40625 -3.4531,0.40625 -3.5859,0 -6.4219,-1 -8.5156,-3 -2.0859,-2 -3.125,-4.7109 -3.125,-8.1406 0,-3.4375 1.0391,-6.1562 3.125,-8.1562 2.0938,-2 4.9297,-3 8.5156,-3 1.1953,0 2.3477,0.13672 3.4531,0.40625 1.1016,0.27344 2.1602,0.66797 3.1719,1.1875 v 4.4531 c -1.0234,-0.69531 -2.0312,-1.207 -3.0312,-1.5312 -1,-0.33203 -2.0547,-0.5 -3.1562,-0.5 -1.9688,0 -3.5234,0.63672 -4.6562,1.9062 -1.1367,1.2617 -1.7031,3.0078 -1.7031,5.2344 0,2.2188 0.56641,3.9648 1.7031,5.2344 1.1328,1.2617 2.6875,1.8906 4.6562,1.8906 1.1016,0 2.1562,-0.16016 3.1562,-0.48438 1,-0.33203 2.0078,-0.84766 3.0312,-1.5469 z"
         id="path2" />
    </symbol>
    <symbol
       id="d"
       overflow="visible">
      <path
         d="m 14.453,-11.734 c -0.46094,-0.20703 -0.91406,-0.35938 -1.3594,-0.45312 -0.4375,-0.10156 -0.88672,-0.15625 -1.3438,-0.15625 -1.3242,0 -2.3438,0.42969 -3.0625,1.2812 -0.71094,0.84375 -1.0625,2.0586 -1.0625,3.6406 V 3.3e-4 H 2.4686 v -16.109 h 5.1562 v 2.6406 c 0.66406,-1.0508 1.4258,-1.8164 2.2812,-2.2969 0.85156,-0.48828 1.8828,-0.73438 3.0938,-0.73438 0.16406,0 0.34766,0.0078 0.54688,0.01563 0.20703,0.01172 0.50391,0.04297 0.89062,0.09375 z"
         id="path5" />
    </symbol>
    <symbol
       id="a"
       overflow="visible">
      <path
         d="m 18.562,-8.0938 v 1.4531 H 6.515 c 0.125,1.2109 0.5625,2.1211 1.3125,2.7344 0.75,0.60547 1.7969,0.90625 3.1406,0.90625 1.082,0 2.1914,-0.16016 3.3281,-0.48438 1.1328,-0.32031 2.3008,-0.8125 3.5,-1.4688 v 3.9688 c -1.2188,0.46875 -2.4375,0.82031 -3.6562,1.0469 -1.2188,0.23828 -2.4375,0.35938 -3.6562,0.35938 -2.918,0 -5.1836,-0.73828 -6.7969,-2.2188 -1.6172,-1.4883 -2.4219,-3.5703 -2.4219,-6.25 0,-2.625 0.78906,-4.6875 2.375,-6.1875 1.5938,-1.5078 3.7812,-2.2656 6.5625,-2.2656 2.5312,0 4.5547,0.76562 6.0781,2.2969 1.5195,1.5234 2.2812,3.5586 2.2812,6.1094 z m -5.2969,-1.7188 c 0,-0.97656 -0.28906,-1.7656 -0.85938,-2.3594 -0.57422,-0.60156 -1.3203,-0.90625 -2.2344,-0.90625 -1,0 -1.8125,0.28125 -2.4375,0.84375 -0.61719,0.5625 -1,1.3711 -1.1562,2.4219 z"
         id="path8" />
    </symbol>
    <symbol
       id="e"
       overflow="visible">
      <path
         d="m 9.7031,-7.25 c -1.0742,0 -1.8867,0.18359 -2.4375,0.54688 -0.54297,0.36719 -0.8125,0.90234 -0.8125,1.6094 0,0.65625 0.21875,1.1719 0.65625,1.5469 0.4375,0.36719 1.0469,0.54688 1.8281,0.54688 0.96875,0 1.7812,-0.34766 2.4375,-1.0469 0.66406,-0.69531 1,-1.5664 1,-2.6094 v -0.59375 z m 7.8594,-1.9375 V 0 H 12.375 v -2.3906 c -0.6875,0.98047 -1.4648,1.6953 -2.3281,2.1406 -0.86719,0.44531 -1.918,0.67188 -3.1562,0.67188 -1.668,0 -3.0234,-0.48438 -4.0625,-1.4531 -1.043,-0.97656 -1.5625,-2.2422 -1.5625,-3.7969 0,-1.8945 0.64844,-3.2812 1.9531,-4.1562 1.3008,-0.88281 3.3438,-1.3281 6.125,-1.3281 h 3.0312 v -0.40625 c 0,-0.8125 -0.32422,-1.4062 -0.96875,-1.7812 -0.63672,-0.38281 -1.6367,-0.57812 -3,-0.57812 -1.1055,0 -2.1328,0.10938 -3.0781,0.32812 -0.94922,0.21875 -1.8359,0.55469 -2.6562,1 v -3.9375 c 1.1016,-0.26953 2.2109,-0.47266 3.3281,-0.60938 1.1133,-0.13281 2.2266,-0.20312 3.3438,-0.20312 2.9062,0 5,0.57422 6.2812,1.7188 1.2891,1.1484 1.9375,3.0117 1.9375,5.5938 z"
         id="path11" />
    </symbol>
    <symbol
       id="c"
       overflow="visible">
      <path
         d="m 8.0938,-20.688 v 4.5781 h 5.3125 v 3.6719 H 8.0938 v 6.8438 c 0,0.75 0.14844,1.2578 0.45312,1.5156 0.30078,0.26172 0.89062,0.39062 1.7656,0.39062 h 2.6562 v 3.6875 h -4.4219 c -2.0312,0 -3.4766,-0.42188 -4.3281,-1.2656 -0.84375,-0.85156 -1.2656,-2.2969 -1.2656,-4.3281 v -6.8438 h -2.5625 v -3.6719 h 2.5625 v -4.5781 z"
         id="path14" />
    </symbol>
    <symbol
       id="l"
       overflow="visible">
      <path
         d="m 13.438,-13.75 v -8.6406 h 5.1875 V 4e-4 H 13.438 v -2.3281 c -0.71094,0.94922 -1.4922,1.6484 -2.3438,2.0938 -0.85547,0.4375 -1.8438,0.65625 -2.9688,0.65625 -1.9805,0 -3.6094,-0.78516 -4.8906,-2.3594 -1.2734,-1.582 -1.9062,-3.6172 -1.9062,-6.1094 0,-2.4766 0.63281,-4.5039 1.9062,-6.0781 1.2812,-1.582 2.9102,-2.375 4.8906,-2.375 1.1133,0 2.0977,0.22656 2.9531,0.67188 0.86328,0.4375 1.6484,1.1328 2.3594,2.0781 z m -3.3906,10.422 c 1.1016,0 1.9414,-0.39844 2.5156,-1.2031 0.58203,-0.80078 0.875,-1.9727 0.875,-3.5156 0,-1.5312 -0.29297,-2.6953 -0.875,-3.5 -0.57422,-0.8125 -1.4141,-1.2188 -2.5156,-1.2188 -1.0938,0 -1.9336,0.40625 -2.5156,1.2188 -0.58594,0.80469 -0.875,1.9688 -0.875,3.5 0,1.543 0.28906,2.7148 0.875,3.5156 0.58203,0.80469 1.4219,1.2031 2.5156,1.2031 z"
         id="path17" />
    </symbol>
    <symbol
       id="k"
       overflow="visible">
      <path
         d="m 11.047,-3.3281 c 1.1016,0 1.9453,-0.39844 2.5312,-1.2031 0.58203,-0.80078 0.875,-1.9727 0.875,-3.5156 0,-1.5312 -0.29297,-2.6953 -0.875,-3.5 -0.58594,-0.8125 -1.4297,-1.2188 -2.5312,-1.2188 -1.1055,0 -1.9531,0.40625 -2.5469,1.2188 -0.58594,0.8125 -0.875,1.9805 -0.875,3.5 0,1.5312 0.28906,2.7031 0.875,3.5156 0.59375,0.80469 1.4414,1.2031 2.5469,1.2031 z m -3.4219,-10.422 c 0.70703,-0.94531 1.4922,-1.6406 2.3594,-2.0781 0.86328,-0.44531 1.8594,-0.67188 2.9844,-0.67188 1.9766,0 3.6016,0.79297 4.875,2.375 1.2812,1.5742 1.9219,3.6016 1.9219,6.0781 0,2.4922 -0.64062,4.5273 -1.9219,6.1094 -1.2734,1.5742 -2.8984,2.3594 -4.875,2.3594 -1.125,0 -2.1211,-0.22656 -2.9844,-0.67188 -0.86719,-0.44531 -1.6523,-1.1406 -2.3594,-2.0781 V -6e-5 H 2.4689 v -22.391 h 5.1562 z"
         id="path20" />
    </symbol>
    <symbol
       id="j"
       overflow="visible">
      <path
         d="m 0.35938,-16.109 h 5.1562 l 4.3281,10.922 3.6875,-10.922 h 5.1406 l -6.7656,17.641 c -0.6875,1.7891 -1.4844,3.0391 -2.3906,3.75 -0.90625,0.71875 -2.1055,1.0781 -3.5938,1.0781 h -2.9688 v -3.375 h 1.6094 c 0.875,0 1.5078,-0.14062 1.9062,-0.42188 0.39453,-0.28125 0.70312,-0.78125 0.92188,-1.5 l 0.15625,-0.4375 z"
         id="path23" />
    </symbol>
    <symbol
       id="i"
       overflow="visible">
      <path
         d="M 2.4688,-16.109 H 7.625 V 0 H 2.4688 Z m 0,-6.2812 H 7.625 v 4.2031 H 2.4688 Z"
         id="path26" />
    </symbol>
    <symbol
       id="h"
       overflow="visible">
      <path
         d="m 15.5,-15.609 v 4.2031 c -0.69922,-0.47656 -1.4023,-0.83203 -2.1094,-1.0625 -0.71094,-0.23828 -1.4453,-0.35938 -2.2031,-0.35938 -1.4375,0 -2.5586,0.42188 -3.3594,1.2656 -0.79297,0.84375 -1.1875,2.0156 -1.1875,3.5156 0,1.5117 0.39453,2.6875 1.1875,3.5312 0.80078,0.83594 1.9219,1.25 3.3594,1.25 0.8125,0 1.5781,-0.11719 2.2969,-0.35938 0.72656,-0.23828 1.3984,-0.59375 2.0156,-1.0625 v 4.2188 c -0.8125,0.29297 -1.6367,0.50781 -2.4688,0.65625 -0.82422,0.15625 -1.6523,0.23438 -2.4844,0.23438 -2.9062,0 -5.1836,-0.74219 -6.8281,-2.2344 -1.6367,-1.5 -2.4531,-3.5781 -2.4531,-6.2344 0,-2.6563 0.81641,-4.7266 2.4531,-6.2188 1.6445,-1.4883 3.9219,-2.2344 6.8281,-2.2344 0.84375,0 1.6758,0.07422 2.5,0.21875 0.82031,0.14844 1.6406,0.37109 2.4531,0.67188 z"
         id="path29" />
    </symbol>
    <symbol
       id="b"
       overflow="visible">
      <path
         d="m 10.141,-12.828 c -1.1367,0 -2.0078,0.41406 -2.6094,1.2344 -0.59375,0.82422 -0.89062,2.0078 -0.89062,3.5469 0,1.543 0.29688,2.7266 0.89062,3.5469 0.60156,0.82422 1.4727,1.2344 2.6094,1.2344 1.125,0 1.9844,-0.41016 2.5781,-1.2344 0.59375,-0.82031 0.89062,-2.0039 0.89062,-3.5469 0,-1.5391 -0.29688,-2.7227 -0.89062,-3.5469 -0.59375,-0.82031 -1.4531,-1.2344 -2.5781,-1.2344 z m 0,-3.6719 c 2.7695,0 4.9375,0.75 6.5,2.25 1.5625,1.4922 2.3438,3.5586 2.3438,6.2031 0,2.6484 -0.78125,4.7188 -2.3438,6.2188 -1.56255,1.5 -3.7305,2.25 -6.5,2.25 -2.7812,0 -4.9609,-0.75 -6.5312,-2.25 -1.5625,-1.5 -2.3438,-3.5703 -2.3438,-6.2188 0,-2.6445 0.78125,-4.7109 2.3438,-6.2031 1.5703,-1.5 3.75,-2.25 6.5312,-2.25 z"
         id="path32" />
    </symbol>
    <symbol
       id="g"
       overflow="visible">
      <path
         d="M 18.672,-9.8125 V 0 h -5.1719 v -7.5156 c 0,-1.3828 -0.03125,-2.3438 -0.09375,-2.875 -0.0625,-0.5312 -0.17188,-0.91406 -0.32812,-1.1562 -0.19922,-0.34375 -0.47656,-0.60938 -0.82812,-0.79688 -0.34375,-0.1875 -0.73438,-0.28125 -1.1719,-0.28125 -1.0742,0 -1.918,0.41797 -2.5312,1.25 -0.61719,0.83594 -0.92188,1.9844 -0.92188,3.4531 V 7e-5 h -5.1562 v -16.109 h 5.1562 v 2.3594 c 0.78125,-0.94531 1.6016,-1.6406 2.4688,-2.0781 0.875,-0.44531 1.8438,-0.67188 2.9062,-0.67188 1.8516,0 3.2578,0.57422 4.2188,1.7188 0.96875,1.1367 1.4531,2.793 1.4531,4.9688 z"
         id="path35" />
    </symbol>
    <symbol
       id="f"
       overflow="visible">
      <path
         d="m 17.406,-13.438 c 0.65625,-1 1.4297,-1.7578 2.3281,-2.2812 0.89453,-0.51953 1.8789,-0.78125 2.9531,-0.78125 1.8516,0 3.2656,0.57422 4.2344,1.7188 0.96875,1.1367 1.4531,2.793 1.4531,4.9688 v 9.8125 h -5.1875 v -8.4062 c 0.0078,-0.125 0.01563,-0.25391 0.01563,-0.39062 0.0078,-0.13281 0.01563,-0.32812 0.01563,-0.57812 0,-1.1328 -0.16797,-1.957 -0.5,-2.4688 -0.33594,-0.51953 -0.875,-0.78125 -1.625,-0.78125 -0.98047,0 -1.7344,0.40625 -2.2656,1.2188 -0.53125,0.80469 -0.80859,1.9688 -0.82812,3.5 v 7.9062 h -5.1719 v -8.4062 c 0,-1.7812 -0.15625,-2.9258 -0.46875,-3.4375 -0.30469,-0.51953 -0.85156,-0.78125 -1.6406,-0.78125 -0.99219,0 -1.7578,0.40625 -2.2969,1.2188 -0.53125,0.8125 -0.79688,1.9766 -0.79688,3.4844 v 7.9219 H 2.4528 v -16.109 h 5.1719 v 2.3594 c 0.63281,-0.91406 1.3594,-1.6016 2.1719,-2.0625 0.82031,-0.45703 1.7266,-0.6875 2.7188,-0.6875 1.1133,0 2.0977,0.27344 2.9531,0.8125 0.85156,0.53125 1.5,1.2812 1.9375,2.25 z"
         id="path38" />
    </symbol>
    <symbol
       id="s"
       overflow="visible">
      <path
         d="m 15.062,-15.609 v 3.9062 c -1.1055,-0.45703 -2.1719,-0.80078 -3.2031,-1.0312 -1.0234,-0.22656 -1.9844,-0.34375 -2.8906,-0.34375 -0.98047,0 -1.7109,0.125 -2.1875,0.375 -0.46875,0.24219 -0.70312,0.61719 -0.70312,1.125 0,0.40625 0.17578,0.72656 0.53125,0.95312 0.36328,0.21875 1.0078,0.38281 1.9375,0.48438 l 0.90625,0.125 c 2.6328,0.33594 4.4062,0.88672 5.3125,1.6562 0.91406,0.77344 1.375,1.9766 1.375,3.6094 0,1.7188 -0.63672,3.0117 -1.9062,3.875 -1.2617,0.86719 -3.1484,1.2969 -5.6562,1.2969 -1.0625,0 -2.168,-0.089844 -3.3125,-0.26562 -1.1367,-0.16406 -2.3047,-0.41406 -3.5,-0.75 v -3.9062 c 1.0312,0.5 2.082,0.875 3.1562,1.125 1.082,0.25 2.1797,0.375 3.2969,0.375 1.0078,0 1.7656,-0.14062 2.2656,-0.42188 0.50781,-0.28125 0.76562,-0.69141 0.76562,-1.2344 0,-0.46875 -0.17969,-0.8125 -0.53125,-1.0312 C 10.3746,-5.91361 9.67925,-6.0933 8.64025,-6.2183 L 7.734,-6.32768 c -2.3047,-0.28906 -3.9141,-0.82031 -4.8281,-1.5938 -0.91797,-0.78125 -1.375,-1.9609 -1.375,-3.5469 0,-1.707 0.58203,-2.9727 1.75,-3.7969 1.1641,-0.82031 2.957,-1.2344 5.375,-1.2344 0.95703,0 1.957,0.07422 3,0.21875 1.0391,0.13672 2.1758,0.35938 3.4062,0.67188 z"
         id="path41" />
    </symbol>
    <symbol
       id="r"
       overflow="visible">
      <path
         d="m 13.078,-22.391 v 3.375 h -2.8438 c -0.73047,0 -1.2422,0.13672 -1.5312,0.40625 -0.28125,0.26172 -0.42188,0.71875 -0.42188,1.375 v 1.125 h 4.3906 v 3.6719 h -4.3906 v 12.438 h -5.1562 v -12.438 h -2.5625 v -3.6719 h 2.5625 v -1.125 c 0,-1.7578 0.48828,-3.0547 1.4688,-3.8906 0.97656,-0.84375 2.4922,-1.2656 4.5469,-1.2656 z"
         id="path44" />
    </symbol>
    <symbol
       id="q"
       overflow="visible">
      <path
         d="M 18.672,-9.8125 V 0 h -5.1719 v -7.4844 c 0,-1.4062 -0.03125,-2.375 -0.09375,-2.9062 -0.0625,-0.5312 -0.17188,-0.91406 -0.32812,-1.1562 -0.19922,-0.34375 -0.47656,-0.60938 -0.82812,-0.79688 -0.34375,-0.1875 -0.73438,-0.28125 -1.1719,-0.28125 -1.0742,0 -1.918,0.41797 -2.5312,1.25 -0.61719,0.83594 -0.92188,1.9844 -0.92188,3.4531 V 7e-5 h -5.1562 v -22.391 h 5.1562 v 8.6406 c 0.78125,-0.94531 1.6016,-1.6406 2.4688,-2.0781 0.875,-0.44531 1.8438,-0.67188 2.9062,-0.67188 1.8516,0 3.2578,0.57422 4.2188,1.7188 0.96875,1.1367 1.4531,2.793 1.4531,4.9688 z"
         id="path47" />
    </symbol>
    <symbol
       id="p"
       overflow="visible">
      <path
         d="m 2.7031,-21.484 h 6.1875 l 7.8125,14.734 v -14.734 h 5.25 V 0 H 15.7656 L 7.9531,-14.734 V 0 h -5.25 z"
         id="path50" />
    </symbol>
    <symbol
       id="o"
       overflow="visible">
      <path
         d="m 2.2969,-6.2812 v -9.8281 h 5.1875 v 1.6094 c 0,0.875 -0.00781,1.9766 -0.015625,3.2969 -0.011719,1.3125 -0.015625,2.1875 -0.015625,2.625 0,1.293 0.03125,2.2266 0.09375,2.7969 0.070313,0.57422 0.19141,0.99219 0.35938,1.25 0.20703,0.33594 0.47656,0.59375 0.8125,0.78125 0.34375,0.17969 0.73828,0.26562 1.1875,0.26562 1.0703,0 1.9141,-0.41016 2.5312,-1.2344 0.61328,-0.82031 0.92188,-1.9688 0.92188,-3.4375 v -7.9531 h 5.1406 v 16.109 h -5.1406 v -2.3281 c -0.78125,0.9375 -1.6094,1.6328 -2.4844,2.0781 -0.86719,0.44531 -1.8203,0.67188 -2.8594,0.67188 -1.8672,0 -3.2891,-0.56641 -4.2656,-1.7031 -0.96875,-1.1445 -1.4531,-2.8125 -1.4531,-5 z"
         id="path53" />
    </symbol>
    <symbol
       id="n"
       overflow="visible">
      <path
         d="m 2.7031,-21.484 h 9.2031 c 2.7266,0 4.8203,0.60938 6.2812,1.8281 1.4688,1.2109 2.2031,2.9375 2.2031,5.1875 0,2.25 -0.73438,3.9844 -2.2031,5.2031 -1.4609,1.2109 -3.5547,1.8125 -6.2812,1.8125 H 8.25 V 3e-4 H 2.7031 Z m 5.5469,4.0156 v 6 h 3.0625 c 1.0703,0 1.8984,-0.25781 2.4844,-0.78125 0.58203,-0.51953 0.875,-1.2578 0.875,-2.2188 0,-0.96875 -0.29297,-1.707 -0.875,-2.2188 -0.58594,-0.51953 -1.4141,-0.78125 -2.4844,-0.78125 z"
         id="path56" />
    </symbol>
    <symbol
       id="m"
       overflow="visible">
      <path
         d="M 2.4688,-16.109 H 7.625 v 15.828 c 0,2.1562 -0.52344,3.8008 -1.5625,4.9375 -1.0312,1.1328 -2.5312,1.7031 -4.5,1.7031 h -2.5469 v -3.375 h 0.89062 c 0.97656,0 1.6484,-0.22656 2.0156,-0.67188 0.36328,-0.4375 0.54688,-1.3047 0.54688,-2.5938 z m 0,-6.2812 H 7.625 v 4.2031 H 2.4688 Z"
         id="path59" />
    </symbol>
  </defs>
  <g
     id="g134"
     transform="translate(-84.74408,-17.771187)">
    <path
       d="m 350,429.32 c -18.156,0.004 -35.57,-7.2031 -48.41,-20.043 -12.836,-12.836 -20.051,-30.246 -20.051,-48.402 0,-18.156 7.2148,-35.566 20.051,-48.402 12.84,-12.836 30.254,-20.047 48.41,-20.039 18.156,0.004 35.566,7.2227 48.398,20.062 12.832,12.844 20.035,30.258 20.027,48.414 -0.0273,18.137 -7.2461,35.523 -20.074,48.348 -12.824,12.824 -30.215,20.039 -48.352,20.062 z m 0,-147.25 c -20.898,-0.004 -40.945,8.293 -55.73,23.07 -14.781,14.773 -23.09,34.816 -23.094,55.715 -0.008,20.902 8.2891,40.949 23.066,55.73 14.773,14.781 34.812,23.094 55.715,23.098 20.898,0.008 40.945,-8.2891 55.73,-23.062 14.785,-14.7729 23.094,-34.812 23.102,-55.715 -0.0195,-20.895 -8.3281,-40.926 -23.098,-55.707 C 390.921,290.422 370.894,282.105 350,282.07 Z m 7.5156,-221.28 c 0.008,-1.1367 0.92969,-2.0625 2.0703,-2.0742 h 205.28 c 1.1406,0.01172 2.0586,0.9375 2.0703,2.0742 v 19.691 c 0.008,0.55078 -0.20703,1.082 -0.59766,1.4727 -0.39063,0.39062 -0.92188,0.60547 -1.4727,0.60156 h -205.28 c -0.55469,0.0039 -1.082,-0.21094 -1.4727,-0.60156 -0.39062,-0.39063 -0.60547,-0.92188 -0.59766,-1.4727 z m 2.0703,32.125 205.28,0.0039 c 3.2969,0 6.4609,-1.3125 8.793,-3.6445 2.3321,-2.332 3.6406,-5.4961 3.6406,-8.793 v -19.691 c -0.0117,-6.8672 -5.5664,-12.434 -12.434,-12.461 h -205.28 c -6.8594,0.02734 -12.41,5.582 -12.434,12.438 v 19.691 c 0,3.2969 1.3086,6.4609 3.6406,8.793 2.332,2.332 5.4922,3.6445 8.793,3.6445 z m -100.45,-33.973 c 4.7305,0 8.9922,2.8516 10.801,7.2227 1.8088,4.3711 0.80469,9.3984 -2.5391,12.742 -3.34379,3.3436 -8.375,4.3438 -12.746,2.5312 -4.3672,-1.8086 -7.2188,-6.0742 -7.2188,-10.805 0.008,-6.457 5.2461,-11.691 11.703,-11.691 z m 0,33.754 v -0.0039 c 5.8516,0.0078 11.469,-2.3125 15.613,-6.4492 4.1406,-4.1328 6.4688,-9.7461 6.4727,-15.598 0.004,-5.8555 -2.3164,-11.469 -6.4531,-15.609 -4.1406,-4.1406 -9.7539,-6.4688 -15.605,-6.4688 -5.8516,-0.0039 -11.469,2.3242 -15.605,6.4609 -4.1406,4.1406 -6.4648,9.7539 -6.4609,15.605 0.008,5.8477 2.332,11.449 6.4609,15.586 4.1328,4.1328 9.7344,6.4609 15.578,6.4727 z m -57.191,-33.754 c 4.7305,-0.0039 8.9961,2.8438 10.809,7.2148 1.8125,4.3672 0.8125,9.3984 -2.5312,12.746 -3.3437,3.3476 -8.375,4.3477 -12.746,2.5391 -4.3711,-1.8125 -7.2188,-6.0742 -7.2188,-10.809 0.004,-6.4531 5.2344,-11.684 11.688,-11.691 z m 0,33.754 v -0.0039 c 5.8555,0.0078 11.469,-2.3164 15.609,-6.4531 4.1406,-4.1328 6.4688,-9.7461 6.4727,-15.602 0.004,-5.8516 -2.3203,-11.465 -6.457,-15.605 -4.1406,-4.1406 -9.75,-6.4648 -15.605,-6.4648 -5.8516,-0.0039 -11.465,2.3242 -15.605,6.4609 -4.1367,4.1406 -6.4609,9.7539 -6.4609,15.605 0.0117,5.8477 2.3359,11.449 6.4688,15.586 4.1328,4.1328 9.7344,6.4609 15.578,6.4727 z m -57.191,-33.754 c 4.7344,-0.0078 9.0039,2.8359 10.82,7.207 1.8125,4.3672 0.81641,9.4023 -2.5273,12.75 -3.3398,3.3477 -8.375,4.3516 -12.746,2.543 -4.3711,-1.8086 -7.2227,-6.0742 -7.2227,-10.809 0.008,-6.4492 5.2266,-11.676 11.676,-11.691 z m 0,33.754 v -0.0039 c 5.8555,0.0078 11.469,-2.3164 15.609,-6.4531 4.1445,-4.1328 6.4727,-9.7461 6.4727,-15.602 0.004,-5.8516 -2.3203,-11.465 -6.457,-15.605 -4.1367,-4.1406 -9.75,-6.4648 -15.605,-6.4648 -5.8516,-0.0039 -11.465,2.3242 -15.605,6.4609 -4.1367,4.1406 -6.4609,9.7539 -6.4609,15.605 0.0117,5.8477 2.3359,11.449 6.4688,15.586 4.1328,4.1328 9.7344,6.4609 15.578,6.4727 z m -49.648,30.797 v 275.32 c 0.0078,8.5117 3.3945,16.676 9.418,22.691 6.0234,6.0156 14.188,9.3945 22.699,9.3945 h 95.055 c -6.0273,-10.938 -10.605,-22.609 -13.617,-34.727 l -35.676,-6.3672 c -2.4727,-0.44141 -4.2734,-2.5938 -4.2734,-5.1055 v -47.629 c 0,-2.5117 1.8008,-4.6641 4.2734,-5.1094 l 35.676,-6.2891 c 3.4805,-14.027 9.0469,-27.453 16.504,-39.832 l -20.762,-29.688 c -1.4375,-2.0703 -1.1914,-4.875 0.58984,-6.6602 l 33.672,-33.602 v 0.004 c 1.7656,-1.8008 4.5742,-2.0469 6.6328,-0.58984 l 29.699,20.727 -0.004,-0.004 c 12.367,-7.457 25.781,-13.023 39.797,-16.504 l 6.332,-35.617 c 0.41797,-2.4844 2.5742,-4.3008 5.0977,-4.2969 h 47.625 c 2.5195,-0.004 4.6797,1.8125 5.1016,4.2969 l 6.3203,35.605 c 14.016,3.4805 27.43,9.0469 39.797,16.504 l 29.699,-20.727 -0.004,0.004 c 2.0586,-1.457 4.8672,-1.2109 6.6328,0.58984 l 33.672,33.602 v -0.004 c 1.7812,1.7852 2.0273,4.5898 0.58984,6.6602 l -20.754,29.688 h -0.004 c 7.4609,12.379 13.023,25.805 16.508,39.832 l 35.668,6.2891 c 2.4727,0.44531 4.2734,2.5977 4.2734,5.1094 v 47.602 c 0,2.5117 -1.8008,4.6602 -4.2734,5.1055 l -35.723,6.3516 c -3.0078,12.137 -7.5859,23.828 -13.609,34.781 h 95.047 c 8.5078,0 16.668,-3.375 22.691,-9.3828 6.0195,-6.0117 9.4102,-14.164 9.4258,-22.672 v -275.35 z m 32.117,-95.352 c -8.5156,0.01172 -16.68,3.4023 -22.699,9.4258 -6.0234,6.0234 -9.4102,14.188 -9.418,22.707 v 52.859 l 509.8,-0.004 V 60.273894 c -0.008,-8.5195 -3.3945,-16.684 -9.418,-22.707 -6.0195,-6.0234 -14.184,-9.4141 -22.699,-9.4258 z m 329.88,467.35 27.527,-27.539 -20.219,-28.883 v -0.004 c -1.1992,-1.7227 -1.25,-4 -0.12891,-5.7773 8.3633,-13.141 14.375,-27.637 17.762,-42.84 0.46875,-2.0156 2.0898,-3.5586 4.125,-3.9258 l 34.781,-6.1484 v -38.906 l -34.781,-6.1797 c -2.0586,-0.37109 -3.6875,-1.9492 -4.125,-3.9961 -3.3906,-15.207 -9.3984,-29.707 -17.75,-42.859 -1.1211,-1.75 -1.0703,-4.0039 0.12891,-5.6992 l 20.219,-28.949 -27.527,-27.539 -28.93,20.215 v -0.004 c -1.7148,1.1914 -3.9766,1.25 -5.75,0.14844 -13.141,-8.3555 -27.629,-14.363 -42.824,-17.77 -2.0391,-0.44141 -3.6094,-2.0703 -3.9727,-4.125 l -6.1836,-34.738 h -38.906 l -6.1523,34.715 c -0.36328,2.0547 -1.9336,3.6875 -3.9727,4.125 -15.195,3.4023 -29.688,9.4141 -42.828,17.77 -1.7734,1.1016 -4.0312,1.043 -5.7461,-0.14844 l -28.93,-20.215 -27.527,27.539 20.227,28.949 -0.004,0.004 c 1.1953,1.6953 1.2422,3.9492 0.125,5.6992 -8.3594,13.152 -14.375,27.656 -17.781,42.867 -0.4375,2.043 -2.0664,3.625 -4.125,3.9961 l -34.781,6.1641 v 38.906 l 34.777,6.1484 h 0.004 c 2.0352,0.37109 3.6562,1.9141 4.125,3.9258 3.3789,15.211 9.3867,29.715 17.75,42.859 1.1211,1.7773 1.0703,4.0508 -0.125,5.7773 l -20.227,28.883 27.527,27.539 28.93,-20.207 0.004,0.004 c 1.7148,-1.1953 3.9766,-1.2539 5.75,-0.14844 13.141,8.3555 27.629,14.367 42.824,17.766 2.0391,0.44141 3.6133,2.0742 3.9727,4.1289 l 6.1523,34.777 h 38.906 l 6.1602,-34.777 c 0.36719,-2.0547 1.9375,-3.6836 3.9727,-4.1289 15.207,-3.3711 29.699,-9.3867 42.828,-17.766 1.7734,-1.1055 4.0312,-1.0469 5.7461,0.14844 l 28.93,20.207 z m -329.88,-54.262 h 94.188 l -17.008,24.359 c -1.4375,2.0703 -1.1914,4.875 0.58984,6.6602 l 33.672,33.684 v -0.004 c 1.7812,1.7656 4.5664,2.0117 6.6328,0.58984 l 29.68,-20.801 c 12.363,7.4648 25.777,13.027 39.793,16.504 l 6.3516,35.688 c 0.44531,2.4727 2.5859,4.2773 5.0977,4.2969 h 47.625 c 2.5117,-0.0195 4.6562,-1.8242 5.1016,-4.2969 l 6.293,-35.688 c 14.016,-3.4766 27.43,-9.043 39.793,-16.504 l 29.699,20.801 c 2.0664,1.4219 4.8477,1.1758 6.6328,-0.58984 l 33.652,-33.68 c 1.7812,-1.7852 2.0273,-4.5898 0.58984,-6.6602 l -17.02,-24.355 94.199,-0.004 c 11.258,-0.004 22.055,-4.4766 30.02,-12.434 7.9648,-7.957 12.445,-18.75 12.461,-30.008 V 60.267187 c -0.0156,-11.266 -4.4961,-22.062 -12.461,-30.027 -7.9609,-7.9648 -18.758,-12.449 -30.02,-12.469 h -445.56 c -11.262,0.01953 -22.059,4.5039 -30.02,12.469 -7.9648,7.9648 -12.445,18.762 -12.461,30.027 V 398.80719 c 0.01953,11.254 4.5039,22.039 12.469,29.992 7.9648,7.9531 18.758,12.422 30.012,12.426 z"
       fill-rule="evenodd"
       id="path64" />
  </g>
</svg>
