<?xml version="1.0" encoding="UTF-8" standalone="no"?>
<svg
   width="671.98401"
   height="366.34134"
   version="1.1"
   viewBox="0 0 503.98802 274.75601"
   id="svg83"
   sodipodi:docname="noun-digital-devices-4461650.svg"
   inkscape:version="1.1.1 (3bf5ae0d25, 2021-09-20)"
   xmlns:inkscape="http://www.inkscape.org/namespaces/inkscape"
   xmlns:sodipodi="http://sodipodi.sourceforge.net/DTD/sodipodi-0.dtd"
   xmlns="http://www.w3.org/2000/svg"
   xmlns:svg="http://www.w3.org/2000/svg">
  <sodipodi:namedview
     id="namedview85"
     pagecolor="#505050"
     bordercolor="#eeeeee"
     borderopacity="1"
     inkscape:pageshadow="0"
     inkscape:pageopacity="0"
     inkscape:pagecheckerboard="0"
     inkscape:document-units="pt"
     showgrid="false"
     units="px"
     fit-margin-top="0"
     fit-margin-left="0"
     fit-margin-right="0"
     fit-margin-bottom="0"
     inkscape:zoom="0.30759145"
     inkscape:cx="1321.5582"
     inkscape:cy="321.8555"
     inkscape:window-width="1920"
     inkscape:window-height="992"
     inkscape:window-x="-8"
     inkscape:window-y="-8"
     inkscape:window-maximized="1"
     inkscape:current-layer="g81" />
  <defs
     id="defs41">
    <symbol
       id="m"
       overflow="visible">
      <path
         d="m 37.516,-2.25 c -1.9297,1.0117 -3.9453,1.7734 -6.0469,2.2812 -2.0938,0.50781 -4.2812,0.76562 -6.5625,0.76562 -6.793,0 -12.18,-1.8984 -16.156,-5.7031 -3.9688,-3.8008 -5.9531,-8.957 -5.9531,-15.469 0,-6.5195 1.9844,-11.68 5.9531,-15.484 3.9766,-3.8008 9.3633,-5.7031 16.156,-5.7031 2.2812,0 4.4688,0.25781 6.5625,0.76562 2.1016,0.51172 4.1172,1.2656 6.0469,2.2656 v 8.4531 c -1.9492,-1.332 -3.8711,-2.3047 -5.7656,-2.9219 -1.8984,-0.625 -3.8906,-0.9375 -5.9844,-0.9375 -3.7617,0 -6.7188,1.2031 -8.875,3.6094 -2.1484,2.4062 -3.2188,5.7266 -3.2188,9.9531 0,4.2109 1.0703,7.5156 3.2188,9.9219 2.1562,2.4062 5.1133,3.6094 8.875,3.6094 2.0938,0 4.0859,-0.30469 5.9844,-0.92188 1.8945,-0.625 3.8164,-1.5977 5.7656,-2.9219 z"
         id="path2" />
    </symbol>
    <symbol
       id="h"
       overflow="visible">
      <path
         d="m 27.453,-22.281 c -0.85547,-0.40625 -1.7109,-0.70312 -2.5625,-0.89062 -0.84375,-0.19531 -1.6953,-0.29688 -2.5469,-0.29688 -2.5234,0 -4.4609,0.80859 -5.8125,2.4219 -1.3555,1.6172 -2.0312,3.9297 -2.0312,6.9375 V -1e-4 H 4.703 v -30.625 h 9.7969 v 5.0312 c 1.25,-2.0078 2.6914,-3.4727 4.3281,-4.3906 1.6328,-0.91406 3.5859,-1.375 5.8594,-1.375 0.33203,0 0.6875,0.01563 1.0625,0.04687 0.38281,0.02344 0.94141,0.07813 1.6719,0.17188 z"
         id="path5" />
    </symbol>
    <symbol
       id="b"
       overflow="visible">
      <path
         d="m 35.281,-15.391 v 2.7812 H 12.39 c 0.23828,2.3047 1.0664,4.0273 2.4844,5.1719 1.4258,1.1484 3.4141,1.7188 5.9688,1.7188 2.0508,0 4.1562,-0.30078 6.3125,-0.90625 2.1641,-0.61328 4.3906,-1.5391 6.6719,-2.7812 v 7.5469 c -2.3125,0.875 -4.6328,1.5391 -6.9531,1.9844 -2.3125,0.44531 -4.625,0.67188 -6.9375,0.67188 -5.543,0 -9.8516,-1.4062 -12.922,-4.2188 -3.0742,-2.8203 -4.6094,-6.7734 -4.6094,-11.859 0,-5 1.5039,-8.9258 4.5156,-11.781 3.0195,-2.8633 7.1758,-4.2969 12.469,-4.2969 4.8125,0 8.6602,1.4492 11.547,4.3438 2.8945,2.8984 4.3438,6.7734 4.3438,11.625 z m -10.062,-3.2656 c 0,-1.8516 -0.54688,-3.3477 -1.6406,-4.4844 -1.0859,-1.1445 -2.5,-1.7188 -4.25,-1.7188 -1.8984,0 -3.4375,0.53906 -4.625,1.6094 -1.1797,1.0625 -1.9141,2.5938 -2.2031,4.5938 z"
         id="path8" />
    </symbol>
    <symbol
       id="g"
       overflow="visible">
      <path
         d="m 18.438,-13.781 c -2.043,0 -3.5781,0.35156 -4.6094,1.0469 -1.0312,0.6875 -1.5469,1.7031 -1.5469,3.0469 0,1.2422 0.41016,2.2148 1.2344,2.9219 0.83203,0.69922 1.9883,1.0469 3.4688,1.0469 1.8438,0 3.3906,-0.66016 4.6406,-1.9844 1.2578,-1.3203 1.8906,-2.9727 1.8906,-4.9531 v -1.125 z m 14.953,-3.6875 V 5e-4 h -9.875 v -4.5469 c -1.3125,1.8672 -2.793,3.2266 -4.4375,4.0781 -1.6367,0.84375 -3.6328,1.2656 -5.9844,1.2656 -3.168,0 -5.7422,-0.92578 -7.7188,-2.7812 -1.9805,-1.8516 -2.9688,-4.2539 -2.9688,-7.2031 0,-3.5938 1.2344,-6.2266 3.7031,-7.9062 2.4688,-1.6758 6.3477,-2.5156 11.641,-2.5156 h 5.7656 v -0.76562 c 0,-1.5508 -0.60938,-2.6875 -1.8281,-3.4062 -1.21872,-0.7187 -3.125,-1.0781 -5.7188,-1.0781 -2.0938,0 -4.0469,0.21484 -5.8594,0.64062 -1.8047,0.41797 -3.4766,1.043 -5.0156,1.875 v -7.4688 c 2.0938,-0.50781 4.1953,-0.89453 6.3125,-1.1562 2.1133,-0.25781 4.2266,-0.39062 6.3438,-0.39062 5.5195,0 9.5039,1.0898 11.953,3.2656 2.457,2.1797 3.6875,5.7188 3.6875,10.625 z"
         id="path11" />
    </symbol>
    <symbol
       id="f"
       overflow="visible">
      <path
         d="m 15.391,-39.328 v 8.7031 h 10.094 v 7 H 15.391 v 12.984 c 0,1.4297 0.28125,2.3906 0.84375,2.8906 0.57031,0.5 1.6953,0.75 3.375,0.75 h 5.0312 v 7 h -8.3906 c -3.8672,0 -6.6055,-0.80469 -8.2188,-2.4219 -1.6172,-1.6133 -2.4219,-4.3516 -2.4219,-8.2188 v -12.984 h -4.875 v -7 h 4.875 v -8.7031 z"
         id="path14" />
    </symbol>
    <symbol
       id="e"
       overflow="visible">
      <path
         d="m 25.547,-26.141 v -16.406 h 9.8438 V 0 H 25.547 v -4.4375 c -1.3555,1.8125 -2.8438,3.1406 -4.4688,3.9844 -1.6172,0.83203 -3.4922,1.25 -5.625,1.25 -3.7734,0 -6.8711,-1.5 -9.2969,-4.5 -2.4297,-3 -3.6406,-6.8594 -3.6406,-11.578 0,-4.7266 1.2109,-8.5859 3.6406,-11.578 2.4258,-3 5.5234,-4.5 9.2969,-4.5 2.1133,0 3.9844,0.42188 5.6094,1.2656 1.6328,0.84375 3.1289,2.1641 4.4844,3.9531 z m -6.4531,19.828 c 2.0938,0 3.6914,-0.76562 4.7969,-2.2969 1.1016,-1.5312 1.6562,-3.7539 1.6562,-6.6719 0,-2.9141 -0.55469,-5.1406 -1.6562,-6.6719 -1.1055,-1.5312 -2.7031,-2.2969 -4.7969,-2.2969 -2.0859,0 -3.6797,0.76562 -4.7812,2.2969 -1.1055,1.5312 -1.6562,3.7578 -1.6562,6.6719 0,2.918 0.55078,5.1406 1.6562,6.6719 1.1016,1.5312 2.6953,2.2969 4.7812,2.2969 z"
         id="path17" />
    </symbol>
    <symbol
       id="d"
       overflow="visible">
      <path
         d="m 21,-6.3125 c 2.0938,0 3.6914,-0.76562 4.7969,-2.2969 1.1016,-1.5312 1.6562,-3.7539 1.6562,-6.6719 0,-2.9141 -0.55469,-5.1406 -1.6562,-6.6719 -1.1055,-1.5312 -2.7031,-2.2969 -4.7969,-2.2969 -2.0938,0 -3.7031,0.77344 -4.8281,2.3125 -1.1172,1.5312 -1.6719,3.75 -1.6719,6.6562 0,2.8984 0.55469,5.1172 1.6719,6.6562 1.125,1.543 2.7344,2.3125 4.8281,2.3125 z m -6.5,-19.828 c 1.3438,-1.7891 2.832,-3.1094 4.4688,-3.9531 1.6445,-0.84375 3.5352,-1.2656 5.6719,-1.2656 3.7695,0 6.8672,1.5 9.2969,4.5 2.4258,2.9922 3.6406,6.8516 3.6406,11.578 0,4.7188 -1.2148,8.5781 -3.6406,11.578 -2.4297,3 -5.5273,4.5 -9.2969,4.5 -2.1367,0 -4.0273,-0.42188 -5.6719,-1.2656 C 17.3321,-1.32036 15.8438,-2.6446 14.5,-4.4376 V -1e-4 H 4.7031 v -42.547 H 14.5 Z"
         id="path20" />
    </symbol>
    <symbol
       id="a"
       overflow="visible">
      <path
         d="m 0.6875,-30.625 h 9.7812 l 8.2344,20.781 7,-20.781 H 35.5 L 22.609,2.906 c -1.293,3.4062 -2.8047,5.7852 -4.5312,7.1406 -1.7188,1.3633 -3.9922,2.0469 -6.8125,2.0469 H 5.6091 V 5.656 h 3.0625 c 1.6562,0 2.8594,-0.26562 3.6094,-0.79688 0.75781,-0.52344 1.3516,-1.4648 1.7812,-2.8281 l 0.26562,-0.85938 z"
         id="path23" />
    </symbol>
    <symbol
       id="c"
       overflow="visible">
      <path
         d="m 0.28125,-40.828 h 37.625 v 7.9531 h -13.547 V 1e-4 h -10.516 v -32.875 h -13.562 z"
         id="path26" />
    </symbol>
    <symbol
       id="l"
       overflow="visible">
      <path
         d="M 35.5,-18.656 V 0 h -9.8438 v -14.219 c 0,-2.6758 -0.0625,-4.5156 -0.1875,-5.5156 -0.11719,-1.0078 -0.32031,-1.75 -0.60938,-2.2188 -0.38672,-0.64453 -0.90625,-1.1445 -1.5625,-1.5 -0.65625,-0.35156 -1.4023,-0.53125 -2.2344,-0.53125 -2.043,0 -3.6484,0.79297 -4.8125,2.375 -1.168,1.5742 -1.75,3.7578 -1.75,6.5469 v 15.062 h -9.7969 v -42.547 h 9.7969 v 16.406 c 1.4688,-1.7891 3.0312,-3.1094 4.6875,-3.9531 1.6641,-0.84375 3.5,-1.2656 5.5,-1.2656 3.5391,0 6.2266,1.0859 8.0625,3.25 1.832,2.168 2.75,5.3203 2.75,9.4531 z"
         id="path29" />
    </symbol>
    <symbol
       id="k"
       overflow="visible">
      <path
         d="m 4.375,-11.922 v -18.703 h 9.8438 v 3.0625 c 0,1.6562 -0.01172,3.7422 -0.03125,6.25 -0.01172,2.5 -0.01563,4.1719 -0.01563,5.0156 0,2.4609 0.0625,4.2305 0.1875,5.3125 0.125,1.0859 0.34375,1.875 0.65625,2.375 0.39453,0.63672 0.91406,1.125 1.5625,1.4688 0.65625,0.34375 1.3984,0.51562 2.2344,0.51562 2.0391,0 3.6445,-0.78125 4.8125,-2.3438 1.1641,-1.5703 1.75,-3.75 1.75,-6.5312 v -15.125 h 9.7969 V 2e-5 h -9.7969 v -4.4375 c -1.4805,1.793 -3.043,3.1172 -4.6875,3.9688 -1.6484,0.84375 -3.4648,1.2656 -5.4531,1.2656 -3.543,0 -6.2422,-1.082 -8.0938,-3.25 -1.8438,-2.1758 -2.7656,-5.332 -2.7656,-9.4688 z"
         id="path32" />
    </symbol>
    <symbol
       id="j"
       overflow="visible">
      <path
         d="m 5.1406,-40.828 h 11.766 l 14.844,28 v -28 H 41.735 V 0 H 29.969 L 15.125,-28 V 0 H 5.1406 Z"
         id="path35" />
    </symbol>
    <symbol
       id="i"
       overflow="visible">
      <path
         d="M 25.547,-5.2031 C 24.1915,-3.4101 22.7032,-2.0937 21.0782,-1.25 19.461,-0.41406 17.586,0 15.4532,0 11.711,0 8.6173,-1.4688 6.172,-4.4062 3.7345,-7.3515 2.5158,-11.1093 2.5158,-15.6722 c 0,-4.5703 1.2188,-8.3203 3.6562,-11.25 2.4453,-2.9258 5.5391,-4.3906 9.2812,-4.3906 2.1328,0 4.0078,0.42188 5.625,1.2656 1.625,0.83594 3.1133,2.1523 4.4688,3.9531 v -4.5312 h 9.8438 v 27.531 c 0,4.9258 -1.5586,8.6875 -4.6719,11.281 -3.1055,2.6016 -7.6094,3.9062 -13.516,3.9062 -1.918,0 -3.7734,-0.14844 -5.5625,-0.4375 -1.7812,-0.29297 -3.5742,-0.74219 -5.375,-1.3438 v -7.625 c 1.707,0.97656 3.3789,1.707 5.0156,2.1875 1.6445,0.48828 3.3008,0.73438 4.9688,0.73438 3.207,0 5.5547,-0.70312 7.0469,-2.1094 1.5,-1.4062 2.25,-3.6016 2.25,-6.5938 z m -6.4531,-19.047 c -2.0312,0 -3.6172,0.75 -4.75,2.25 -1.125,1.4922 -1.6875,3.6016 -1.6875,6.3281 0,2.8125 0.54688,4.9453 1.6406,6.3906 1.0938,1.4492 2.6914,2.1719 4.7969,2.1719 2.0391,0 3.625,-0.74219 4.75,-2.2344 1.1328,-1.5 1.7031,-3.6094 1.7031,-6.3281 0,-2.7266 -0.57031,-4.8359 -1.7031,-6.3281 -1.125,-1.5 -2.7109,-2.25 -4.75,-2.25 z"
         id="path38" />
    </symbol>
  </defs>
  <g
     id="g81"
     transform="translate(-97.995,-142.625)">
    <path
       d="M 253.97,209.04 H 111.03 c -7.1797,0 -13.035,5.8242 -13.035,13.035 v 182.22 c 0,7.1328 5.8594,13.082 13.035,13.082 h 142.93 c 7.1328,0 12.992,-5.9453 12.992,-13.082 v -182.22 c 0.004,-7.2109 -5.8555,-13.035 -12.988,-13.035 z m -71.445,201.34 c -4.457,0 -8.0078,-3.5391 -8.0078,-7.875 0,-4.457 3.5391,-7.9648 8.0078,-7.9648 4.2891,0 7.875,3.5039 7.875,7.9648 -0.004,4.3242 -3.5859,7.875 -7.875,7.875 z M 248.974,386.4 H 115.934 V 226.98 h 133.04 z"
       id="path43" />
    <path
       d="m 230.87,163.36 h 267.1 v 58.105 h 0.22266 23.062 v -57.973 c 0,-11.457 -9.4062,-20.867 -20.867,-20.867 l -271.93,0.004 c -11.457,0 -20.867,9.4062 -20.867,20.867 v 35.527 h 23.273 z"
       id="path45" />
    <path
       d="m 277.02,364.35 h 50.836 l -9.0625,32.426 -17.176,-0.004 c -5.6445,0 -10.238,4.5469 -10.238,10.238 0,5.6914 4.5938,10.371 10.238,10.371 h 125.56 c 5.6445,0 10.281,-4.6797 10.281,-10.371 0,-5.6914 -4.6367,-10.238 -10.281,-10.238 h -17.191 l -8.9727,-32.426 h 74.246 v -29.883 l -198.24,0.004 z m 65.363,-20.82 h 44.105 c 2.6641,0 4.9062,2.1836 4.9062,4.9062 0,2.6641 -2.2305,4.8594 -4.9062,4.8594 h -44.105 c -2.8008,0 -4.9375,-2.1836 -4.9375,-4.8594 0,-2.7227 2.1406,-4.9062 4.9375,-4.9062 z"
       id="path47" />
    <path
       d="m 589.05,231.39 h -90.879 c -7.0898,0 -12.902,5.8594 -12.902,12.945 v 159.99 c 0,7.1797 5.8242,13.035 12.902,13.035 h 90.867 c 7.1328,0 12.945,-5.8594 12.945,-13.035 v -159.99 c 0.0117,-7.0781 -5.8125,-12.949 -12.934,-12.949 z m -45.418,177.85 c -4.2461,0 -7.707,-3.4609 -7.707,-7.707 0,-4.1992 3.4609,-7.6602 7.707,-7.6602 4.1992,0 7.6602,3.4609 7.6602,7.6602 0,4.2461 -3.4609,7.707 -7.6602,7.707 z m 40.387,-22.582 H 503.21 v -134.79 h 14.09 v 2.3203 c 0,3.1914 2.543,5.8242 5.7344,5.8242 h 41.172 c 3.1914,0 5.8242,-2.6211 5.8242,-5.8242 v -2.3203 h 14 v 134.79 z"
       id="path49" />
  </g>
</svg>
