<svg id="Layer_1" data-name="Layer 1" xmlns="http://www.w3.org/2000/svg" xmlns:xlink="http://www.w3.org/1999/xlink" viewBox="0 0 1080 1080"><defs><style>.cls-1{mask:url(#mask);}.cls-2{fill:#231f20;stroke:#000;stroke-miterlimit:10;stroke-width:5px;}.cls-3{fill:#f33;fill-rule:evenodd;}</style><mask id="mask" x="336.24" y="-8732" width="5" height="32766" maskUnits="userSpaceOnUse"/></defs><g class="cls-1"><polygon class="cls-2" points="338.74 392.17 338.74 392.17 338.74 392.17 338.74 382.84 338.74 382.84 338.74 382.84 338.74 382.84 338.74 392.17 338.74 392.17"/></g><path class="cls-3" d="M539.83,79.07C278.7,79.14,67.07,290.89,67.14,552a472.81,472.81,0,0,0,323.29,448.42c23.65,4.34,32.29-10.24,32.29-22.77,0-11.22-.4-41-.66-80.42-131.5,28.57-159.23-63.37-159.23-63.37-21.5-54.65-52.51-69.23-52.51-69.23-42.93-29.33,3.24-28.75,3.24-28.75,47.37,3.35,72.44,48.72,72.44,48.72,42.16,72.26,110.63,51.41,137.59,39.32,4.3-30.57,16.51-51.42,30-63.22C348.6,748.8,238.23,708.21,238.23,527A182.73,182.73,0,0,1,286.91,400.2c-4.84-11.95-21.1-60.05,4.63-125.13,0,0,39.72-12.72,130,48.46a448,448,0,0,1,236.85,0c90.26-61.18,129.86-48.46,129.86-48.46,25.8,65.08,9.59,113.18,4.71,125.13A182.17,182.17,0,0,1,841.57,527c0,181.64-110.55,221.62-215.86,233.2,17,14.58,32.11,43.44,32.11,87.45,0,63.19-.59,114.2-.59,129.69,0,12.64,8.53,27.36,32.51,22.74,247.69-82.77,381.38-350.66,298.61-598.35A472.84,472.84,0,0,0,540,78.78Z"/></svg>