<svg id="Layer_1" data-name="Layer 1" xmlns="http://www.w3.org/2000/svg" viewBox="0 0 1080 1080"><defs><style>.cls-1{fill:#f33;}</style></defs><path class="cls-1" d="M540,153.47c125.89,0,140.8.48,190.52,2.75,46,2.1,70.93,9.78,87.55,16.23,22,8.56,37.71,18.77,54.21,35.27s26.71,32.21,35.26,54.21c6.46,16.62,14.14,41.58,16.24,87.55,2.27,49.72,2.75,64.63,2.75,190.52s-.48,140.8-2.75,190.52c-2.1,46-9.78,70.93-16.24,87.55-8.55,22-18.77,37.71-35.26,54.21S840.07,899,818.07,907.55c-16.62,6.45-41.58,14.13-87.55,16.23-49.71,2.27-64.62,2.75-190.52,2.75s-140.81-.48-190.52-2.75c-46-2.1-70.93-9.78-87.55-16.23-22-8.55-37.71-18.77-54.21-35.27S181,840.07,172.45,818.07c-6.45-16.62-14.13-41.58-16.23-87.55C154,680.8,153.47,665.89,153.47,540s.48-140.8,2.75-190.52c2.1-46,9.78-70.93,16.23-87.55,8.55-22,18.77-37.71,35.27-54.21s32.21-26.71,54.21-35.27c16.62-6.45,41.58-14.13,87.55-16.23,49.72-2.27,64.63-2.75,190.52-2.75m0-84.95c-128,0-144.1.54-194.39,2.84S261.15,81.62,231.16,93.27c-31,12-57.3,28.17-83.51,54.38s-42.33,52.51-54.38,83.51c-11.66,30-19.62,64.27-21.92,114.45S68.52,412,68.52,540s.54,144.1,2.83,194.39,10.26,84.46,21.92,114.45c12,31,28.17,57.3,54.38,83.51s52.51,42.33,83.51,54.38c30,11.66,64.26,19.62,114.45,21.92s66.34,2.83,194.39,2.83,144.1-.54,194.39-2.83,84.46-10.26,114.45-21.92c31-12.05,57.3-28.17,83.51-54.38s42.33-52.51,54.38-83.51c11.65-30,19.62-64.26,21.91-114.45s2.84-66.34,2.84-194.39-.54-144.1-2.84-194.39-10.26-84.46-21.91-114.45c-12.05-31-28.17-57.3-54.38-83.51s-52.51-42.33-83.51-54.38c-30-11.65-64.27-19.62-114.45-21.91S668.05,68.52,540,68.52Zm0,229.37c-133.72,0-242.11,108.4-242.11,242.11S406.28,782.11,540,782.11,782.11,673.72,782.11,540,673.71,297.89,540,297.89Zm0,399.27A157.16,157.16,0,1,1,697.16,540,157.16,157.16,0,0,1,540,697.16ZM848.25,288.32a56.58,56.58,0,1,1-56.57-56.57A56.58,56.58,0,0,1,848.25,288.32Z"/></svg>