<svg id="Layer_1" data-name="Layer 1" xmlns="http://www.w3.org/2000/svg" xmlns:xlink="http://www.w3.org/1999/xlink" viewBox="0 0 1080 1080"><defs><style>.cls-1{mask:url(#mask);}.cls-2{fill:#231f20;stroke:#000;stroke-miterlimit:10;stroke-width:5px;}.cls-3{fill:#f33;}</style><mask id="mask" x="336.24" y="-8732" width="5" height="32766" maskUnits="userSpaceOnUse"/></defs><g class="cls-1"><polygon class="cls-2" points="338.74 392.17 338.74 392.17 338.74 392.17 338.74 382.84 338.74 382.84 338.74 382.84 338.74 382.84 338.74 392.17 338.74 392.17"/></g><path class="cls-3" d="M942.59,67.14H136.76c-38.09-.65-69,30.21-69.62,68.3V944.56c.66,38.09,31.53,69,69.62,68.3H942.59c38.09.65,69.61-30.21,70.27-68.3V135.44C1012.2,97.35,980.68,66.49,942.59,67.14ZM347.57,873H207.69V421.79H348.23V873ZM277.3,360.05c-44.66,0-81.43-36.78-80.78-81.43S233.3,197.18,278,197.84c44.66,0,80.78,36.77,81.43,81.43-.65,44-36.77,80.78-82.09,80.78ZM873,873H733.08V653.62c0-52.54-.65-119.53-72.9-119.53-72.89,0-84.06,57.14-84.06,115.59V873H435.58V421.79H570.21v61.73h2c18.39-35.46,64.36-72.9,132.66-72.9C846.7,410.62,873,503.88,873,625.38Z"/></svg>