<svg id="Layer_1" data-name="Layer 1" xmlns="http://www.w3.org/2000/svg" xmlns:xlink="http://www.w3.org/1999/xlink" viewBox="0 0 1080 1080"><defs><style>.cls-1{mask:url(#mask);}.cls-2{fill:#231f20;stroke:#000;stroke-miterlimit:10;stroke-width:5px;}.cls-3{fill:#f33;}</style><mask id="mask" x="336.24" y="-8732" width="5" height="32766" maskUnits="userSpaceOnUse"/></defs><g class="cls-1"><polygon class="cls-2" points="338.74 392.17 338.74 392.17 338.74 392.17 338.74 382.84 338.74 382.84 338.74 382.84 338.74 382.84 338.74 392.17 338.74 392.17"/></g><path class="cls-3" d="M366.14,920.52c353.71,0,546.67-293,546.67-546.67,0-8.24,0-16.49-.37-24.73a402.3,402.3,0,0,0,95.92-99.29,390.81,390.81,0,0,1-110.53,30.35,194.33,194.33,0,0,0,84.68-106.41,378.29,378.29,0,0,1-122.15,46.46c-72.69-77.56-194.46-81.31-271.65-8.62a191.81,191.81,0,0,0-55.45,183.6A545,545,0,0,1,136.84,194.75c-51,87.68-25.11,200.08,59.57,256.29-30.35-.75-60.32-9.37-86.93-24v2.62c0,91.42,64.45,170.11,154.37,188.47a189.43,189.43,0,0,1-86.92,3.37A192.24,192.24,0,0,0,356.4,754.91a385.86,385.86,0,0,1-238.67,82.43,379.26,379.26,0,0,1-46.09-3,546.79,546.79,0,0,0,294.5,86.18"/></svg>