<?xml version="1.0" encoding="UTF-8" standalone="no"?>
<svg
   width="677.21478pt"
   height="677.21478pt"
   version="1.1"
   viewBox="0 0 677.21478 677.21478"
   id="svg122"
   sodipodi:docname="noun-api-2677426.svg"
   inkscape:version="1.1.1 (3bf5ae0d25, 2021-09-20)"
   xmlns:inkscape="http://www.inkscape.org/namespaces/inkscape"
   xmlns:sodipodi="http://sodipodi.sourceforge.net/DTD/sodipodi-0.dtd"
   xmlns:xlink="http://www.w3.org/1999/xlink"
   xmlns="http://www.w3.org/2000/svg"
   xmlns:svg="http://www.w3.org/2000/svg">
  <sodipodi:namedview
     id="namedview124"
     pagecolor="#505050"
     bordercolor="#eeeeee"
     borderopacity="1"
     inkscape:pageshadow="0"
     inkscape:pageopacity="0"
     inkscape:pagecheckerboard="0"
     inkscape:document-units="pt"
     showgrid="false"
     inkscape:zoom="0.79821429"
     inkscape:cx="472.30425"
     inkscape:cy="526.1745"
     inkscape:window-width="1918"
     inkscape:window-height="2054"
     inkscape:window-x="1910"
     inkscape:window-y="60"
     inkscape:window-maximized="0"
     inkscape:current-layer="g120"
     fit-margin-top="0"
     fit-margin-left="0"
     fit-margin-right="0"
     fit-margin-bottom="0" />
  <defs
     id="defs38">
    <linearGradient
       inkscape:collect="always"
       id="linearGradient1802">
      <stop
         style="stop-color:#9f78ff;stop-opacity:1"
         offset="0"
         id="stop1798" />
      <stop
         style="stop-color:#f067ff;stop-opacity:1"
         offset="1"
         id="stop1800" />
    </linearGradient>
    <symbol
       id="l"
       overflow="visible">
      <path
         d="m 29.312,-1.75 c -1.5117,0.78125 -3.0898,1.3711 -4.7344,1.7656 -1.6367,0.40625 -3.3398,0.60938 -5.1094,0.60938 -5.3125,0 -9.5273,-1.4844 -12.641,-4.4531 -3.1055,-2.9688 -4.6562,-7 -4.6562,-12.094 0,-5.094 1.5508,-9.125 4.6562,-12.094 3.1133,-2.9688 7.3281,-4.4531 12.641,-4.4531 1.7695,0 3.4727,0.19922 5.1094,0.59375 1.6445,0.39844 3.2227,0.99219 4.7344,1.7812 v 6.5938 c -1.5312,-1.0391 -3.0391,-1.8008 -4.5156,-2.2812 -1.4805,-0.48828 -3.0391,-0.73438 -4.6719,-0.73438 -2.9375,0 -5.2461,0.94531 -6.9219,2.8281 -1.6797,1.875 -2.5156,4.4648 -2.5156,7.7656 0,3.293 0.83594,5.8828 2.5156,7.7656 1.6758,1.875 3.9844,2.8125 6.9219,2.8125 1.6328,0 3.1914,-0.23828 4.6719,-0.71875 1.4766,-0.48828 2.9844,-1.2539 4.5156,-2.2969 z"
         id="path2" />
    </symbol>
    <symbol
       id="b"
       overflow="visible">
      <path
         d="m 21.453,-17.406 c -0.67969,-0.3125 -1.3516,-0.53906 -2.0156,-0.6875 -0.65625,-0.15625 -1.3203,-0.23438 -1.9844,-0.23438 -1.9688,0 -3.4844,0.63281 -4.5469,1.8906 -1.0547,1.2617 -1.5781,3.0703 -1.5781,5.4219 V 6.2e-4 H 3.6718 v -23.922 h 7.6562 v 3.9219 c 0.97656,-1.5625 2.1016,-2.7031 3.375,-3.4219 1.2812,-0.71875 2.8125,-1.0781 4.5938,-1.0781 0.25,0 0.52344,0.01172 0.82812,0.03125 0.30078,0.02344 0.73438,0.07031 1.2969,0.14062 z"
         id="path5" />
    </symbol>
    <symbol
       id="a"
       overflow="visible">
      <path
         d="m 27.562,-12.031 v 2.1875 H 9.671 c 0.1875,1.793 0.83203,3.1367 1.9375,4.0312 1.1133,0.89844 2.6719,1.3438 4.6719,1.3438 1.6016,0 3.25,-0.23438 4.9375,-0.70312 1.6875,-0.47656 3.4219,-1.2031 5.2031,-2.1719 v 5.8906 c -1.8047,0.6875 -3.6094,1.2031 -5.4219,1.5469 -1.8125,0.35156 -3.6211,0.53125 -5.4219,0.53125 -4.3359,0 -7.7031,-1.0977 -10.109,-3.2969 -2.3984,-2.207 -3.5938,-5.2969 -3.5938,-9.2656 0,-3.9062 1.1758,-6.9727 3.5312,-9.2031 2.3633,-2.2383 5.6094,-3.3594 9.7344,-3.3594 3.7578,0 6.7695,1.1367 9.0312,3.4062 2.2578,2.2617 3.3906,5.2812 3.3906,9.0625 z m -7.8594,-2.5312 c 0,-1.457 -0.42969,-2.6289 -1.2812,-3.5156 -0.84375,-0.89453 -1.9492,-1.3438 -3.3125,-1.3438 -1.4922,0 -2.6992,0.41797 -3.625,1.25 -0.91797,0.83594 -1.4922,2.0391 -1.7188,3.6094 z"
         id="path8" />
    </symbol>
    <symbol
       id="h"
       overflow="visible">
      <path
         d="m 14.391,-10.766 c -1.5938,0 -2.793,0.27344 -3.5938,0.8125 -0.80469,0.54297 -1.2031,1.3398 -1.2031,2.3906 0,0.96875 0.32031,1.7305 0.96875,2.2812 0.64453,0.54297 1.5469,0.8125 2.7031,0.8125 1.4375,0 2.6445,-0.51562 3.625,-1.5469 0.98828,-1.0312 1.4844,-2.3203 1.4844,-3.875 v -0.875 z m 11.688,-2.8906 V -6e-4 h -7.7031 v -3.5469 c -1.0312,1.4492 -2.1875,2.5078 -3.4688,3.1719 -1.2813,0.6641 -2.8398,1 -4.6719,1 -2.4805,0 -4.4961,-0.72266 -6.0469,-2.1719 -1.543,-1.4453 -2.3125,-3.3203 -2.3125,-5.625 0,-2.8125 0.96094,-4.8672 2.8906,-6.1719 1.9375,-1.3125 4.9688,-1.9688 9.0938,-1.9688 h 4.5156 v -0.60938 c 0,-1.207 -0.48047,-2.0938 -1.4375,-2.6562 -0.94922,-0.5625 -2.4375,-0.84375 -4.4688,-0.84375 -1.6367,0 -3.1562,0.16797 -4.5625,0.5 -1.4062,0.32422 -2.7188,0.8125 -3.9375,1.4688 v -5.8281 c 1.6445,-0.40625 3.2891,-0.70703 4.9375,-0.90625 1.6562,-0.20703 3.3047,-0.3125 4.9531,-0.3125 4.3203,0 7.4375,0.85547 9.3438,2.5625 1.9141,1.6992 2.875,4.4609 2.875,8.2812 z"
         id="path11" />
    </symbol>
    <symbol
       id="g"
       overflow="visible">
      <path
         d="m 12.031,-30.719 v 6.7969 h 7.875 v 5.4688 h -7.875 v 10.141 c 0,1.1172 0.21875,1.8711 0.65625,2.2656 0.4375,0.38672 1.3125,0.57812 2.625,0.57812 h 3.9375 v 5.4688 h -6.5625 c -3.0234,0 -5.1641,-0.62891 -6.4219,-1.8906 -1.2617,-1.2578 -1.8906,-3.3984 -1.8906,-6.4219 v -10.141 h -3.7969 v -5.4688 h 3.7969 v -6.7969 z"
         id="path14" />
    </symbol>
    <symbol
       id="f"
       overflow="visible">
      <path
         d="m 19.953,-20.422 v -12.812 h 7.6875 V 0 H 19.953 v -3.4531 c -1.0547,1.4062 -2.2148,2.4375 -3.4844,3.0938 -1.2734,0.65625 -2.7422,0.98438 -4.4062,0.98438 -2.9492,0 -5.3711,-1.1719 -7.2656,-3.5156 -1.8867,-2.3438 -2.8281,-5.3594 -2.8281,-9.0469 0,-3.6875 0.94141,-6.7031 2.8281,-9.0469 1.8945,-2.3438 4.3164,-3.5156 7.2656,-3.5156 1.6562,0 3.1172,0.33594 4.3906,1 1.2812,0.65625 2.4453,1.6836 3.5,3.0781 z m -5.0469,15.484 c 1.6445,0 2.8945,-0.59766 3.75,-1.7969 0.86328,-1.1953 1.2969,-2.9297 1.2969,-5.2031 0,-2.2812 -0.43359,-4.0195 -1.2969,-5.2188 -0.85547,-1.1953 -2.1055,-1.7969 -3.75,-1.7969 -1.625,0 -2.8711,0.60156 -3.7344,1.7969 -0.85547,1.1992 -1.2812,2.9375 -1.2812,5.2188 0,2.2734 0.42578,4.0078 1.2812,5.2031 0.86328,1.1992 2.1094,1.7969 3.7344,1.7969 z"
         id="path17" />
    </symbol>
    <symbol
       id="e"
       overflow="visible">
      <path
         d="m 16.406,-4.9375 c 1.6328,0 2.8828,-0.59766 3.75,-1.7969 0.86328,-1.1953 1.2969,-2.9297 1.2969,-5.2031 0,-2.2812 -0.43359,-4.0195 -1.2969,-5.2188 -0.86719,-1.1953 -2.1172,-1.7969 -3.75,-1.7969 -1.6367,0 -2.8906,0.60547 -3.7656,1.8125 -0.875,1.1992 -1.3125,2.9336 -1.3125,5.2031 0,2.2617 0.4375,3.9961 1.3125,5.2031 0.875,1.1992 2.1289,1.7969 3.7656,1.7969 z m -5.0781,-15.484 c 1.0508,-1.3945 2.2188,-2.4219 3.5,-3.0781 1.2812,-0.66406 2.7539,-1 4.4219,-1 2.9453,0 5.3672,1.1719 7.2656,3.5156 1.8945,2.3438 2.8438,5.3594 2.8438,9.0469 0,3.6875 -0.94922,6.7031 -2.8438,9.0469 -1.8984,2.3438 -4.3203,3.5156 -7.2656,3.5156 -1.668,0 -3.1406,-0.33594 -4.4219,-1 -1.2813,-0.66406 -2.4492,-1.6914 -3.5,-3.0781 V 4e-4 H 3.6717 v -33.234 h 7.6562 z"
         id="path20" />
    </symbol>
    <symbol
       id="d"
       overflow="visible">
      <path
         d="m 0.53125,-23.922 h 7.6562 l 6.4219,16.234 5.4688,-16.234 h 7.6562 l -10.062,26.188 c -1.0117,2.6641 -2.1953,4.5234 -3.5469,5.5781 -1.3438,1.0625 -3.1211,1.5938 -5.3281,1.5938 H 4.37545 V 4.4223 h 2.3906 c 1.3008,0 2.2422,-0.21094 2.8281,-0.625 0.59375,-0.40625 1.0547,-1.1484 1.3906,-2.2188 l 0.20312,-0.65625 z"
         id="path23" />
    </symbol>
    <symbol
       id="c"
       overflow="visible">
      <path
         d="m 16.797,-19.547 c 1.2891,0 2.2695,-0.28125 2.9375,-0.84375 0.67578,-0.57031 1.0156,-1.4141 1.0156,-2.5312 0,-1.0938 -0.33984,-1.9258 -1.0156,-2.5 -0.66797,-0.58203 -1.6484,-0.875 -2.9375,-0.875 h -4.5625 v 6.75 z m 0.26562,13.953 c 1.6562,0 2.8984,-0.34766 3.7344,-1.0469 0.83203,-0.69531 1.25,-1.7539 1.25,-3.1719 0,-1.375 -0.41797,-2.4062 -1.25,-3.0938 -0.82422,-0.69531 -2.0703,-1.0469 -3.7344,-1.0469 h -4.8281 v 8.3594 z m 7.6562,-11.469 c 1.7578,0.51172 3.125,1.4609 4.0938,2.8438 0.96875,1.375 1.4531,3.0703 1.4531,5.0781 0,3.0742 -1.043,5.3672 -3.125,6.875 -2.0742,1.5117 -5.2305,2.2656 -9.4688,2.2656 h -13.656 v -31.891 h 12.344 c 4.4258,0 7.6328,0.67188 9.625,2.0156 1.9883,1.3359 2.9844,3.4766 2.9844,6.4219 0,1.5547 -0.36719,2.875 -1.0938,3.9688 -0.73047,1.0859 -1.7812,1.8906 -3.1562,2.4219 z"
         id="path26" />
    </symbol>
    <symbol
       id="k"
       overflow="visible">
      <path
         d="m 23,-23.172 v 6.2344 c -1.0312,-0.71875 -2.0742,-1.2422 -3.125,-1.5781 -1.043,-0.34375 -2.125,-0.51562 -3.25,-0.51562 -2.1367,0 -3.8047,0.625 -5,1.875 -1.1875,1.2422 -1.7812,2.9805 -1.7812,5.2188 0,2.2305 0.59375,3.9688 1.7812,5.2188 1.1953,1.25 2.8633,1.875 5,1.875 1.1953,0 2.332,-0.17578 3.4062,-0.53125 1.0703,-0.36328 2.0625,-0.89453 2.9688,-1.5938 v 6.2656 c -1.1875,0.4375 -2.4023,0.76562 -3.6406,0.98438 -1.2305,0.22656 -2.4648,0.34375 -3.7031,0.34375 -4.3125,0 -7.6875,-1.1094 -10.125,-3.3281 -2.4375,-2.2187 -3.6562,-5.2969 -3.6562,-9.2344 0,-3.9453 1.2188,-7.0234 3.6562,-9.2344 2.4375,-2.2188 5.8125,-3.3281 10.125,-3.3281 1.25,0 2.4844,0.10938 3.7031,0.32812 1.2187,0.21874 2.4297,0.55469 3.6406,1 z"
         id="path29" />
    </symbol>
    <symbol
       id="j"
       overflow="visible">
      <path
         d="m 3.6719,-23.922 h 7.6562 V 0 H 3.6719 Z m 0,-9.3125 h 7.6562 v 6.2344 H 3.6719 Z"
         id="path32" />
    </symbol>
    <symbol
       id="i"
       overflow="visible">
      <path
         d="m 22.359,-23.172 v 5.7969 c -1.6367,-0.67578 -3.2148,-1.1875 -4.7344,-1.5312 -1.5234,-0.34375 -2.9609,-0.51562 -4.3125,-0.51562 -1.4609,0 -2.543,0.18359 -3.25,0.54688 -0.69922,0.36719 -1.0469,0.92188 -1.0469,1.6719 0,0.61719 0.26562,1.0898 0.79688,1.4219 0.53125,0.32422 1.4883,0.5625 2.875,0.71875 l 1.3438,0.1875 c 3.9141,0.5 6.5508,1.3242 7.9062,2.4688 1.3516,1.1367 2.0312,2.9219 2.0312,5.3594 0,2.5547 -0.94531,4.4688 -2.8281,5.75 -1.875,1.2812 -4.6797,1.9219 -8.4062,1.9219 -1.5859,0 -3.2188,-0.125 -4.9062,-0.375 -1.6874,-0.25 -3.4219,-0.625 -5.2031,-1.125 v -5.8125 c 1.5195,0.74219 3.082,1.2969 4.6875,1.6719 1.6016,0.36719 3.2344,0.54688 4.8906,0.54688 1.4883,0 2.6094,-0.20312 3.3594,-0.60938 0.75781,-0.41406 1.1406,-1.0312 1.1406,-1.8438 0,-0.6875 -0.26172,-1.1953 -0.78125,-1.5312 -0.52344,-0.33203 -1.5586,-0.59375 -3.1094,-0.78125 l -1.3438,-0.17188 c -3.4062,-0.42578 -5.793,-1.2109 -7.1562,-2.3594 -1.3672,-1.1562 -2.0469,-2.9102 -2.0469,-5.2656 0,-2.5312 0.86719,-4.4062 2.6094,-5.625 1.7383,-1.2266 4.3984,-1.8438 7.9844,-1.8438 1.4062,0 2.8828,0.10938 4.4375,0.32812 1.5508,0.21094 3.2383,0.54297 5.0625,1 z"
         id="path35" />
    </symbol>
    <linearGradient
       inkscape:collect="always"
       xlink:href="#linearGradient1802"
       id="linearGradient1804"
       x1="333.07507"
       y1="6.1516457"
       x2="333.07507"
       y2="686.25836"
       gradientUnits="userSpaceOnUse" />
  </defs>
  <g
     id="g120"
     transform="translate(-5.7565286,-9.0436242)">
    <g
       id="g1796"
       style="fill-opacity:1;fill:url(#linearGradient1804)">
      <path
         d="m 547.52641,200.92114 c -16.09449,0 -31.7388,2.80161 -46.65945,8.3291 -6.56046,-30.53014 -33.7498,-53.47675 -66.20968,-53.47675 h -0.10076 C 431.58863,74.361956 364.40608,9.0436242 282.27993,9.0436242 c -84.02235,0 -152.36688,68.3509638 -152.36688,152.3668758 0,6.22793 0.38296,12.46101 1.14885,18.65888 C 59.869214,190.50983 5.7565286,251.95346 5.7565286,325.07073 c 0,69.23329 48.2615494,127.28026 112.8691314,142.62788 v 44.57364 l -75.703585,75.70357 c -2.121295,2.10621 -3.305453,4.9834 -3.305453,7.97643 v 45.14765 h 22.573825 v -40.4768 l 75.703583,-75.70358 c 2.12129,-2.10621 3.30545,-4.98339 3.30545,-7.97644 v -45.72167 c 3.73372,0.29225 7.47259,0.57443 11.28691,0.57443 h 33.86074 v 63.05063 l -53.12976,53.12975 c -2.1213,2.10621 -3.30544,4.98341 -3.30544,7.97643 v 45.14765 h 22.57382 v -40.4768 l 53.12976,-53.12975 c 2.12129,-2.10621 3.30545,-4.9834 3.30545,-7.97644 v -67.72147 h 56.43456 v 85.62445 l -30.55592,30.55593 c -2.1213,2.10621 -3.30547,4.98341 -3.30547,7.97643 v 45.14765 h 22.57384 v -40.4768 l 30.55592,-30.55593 c 2.12129,-2.1062 3.30546,-4.98339 3.30546,-7.97643 v -90.2953 h 45.14766 v 169.30369 h 22.57382 V 471.79584 h 45.14765 v 90.2953 c 0,2.99304 1.18411,5.87023 3.30545,7.98146 l 30.55593,30.55078 v 40.4768 h 22.57382 v -45.14766 c 0,-2.99303 -1.18411,-5.87022 -3.30544,-7.98145 L 423.3723,557.42029 v -85.62445 h 56.43457 v 67.72147 c 0,2.99304 1.18412,5.87023 3.30545,7.98147 l 53.12975,53.1246 v 40.4768 h 22.57384 v -45.14766 c 0,-2.99303 -1.18414,-5.87022 -3.30547,-7.98145 l -53.12975,-53.1246 v -63.05063 h 45.14765 v 45.14765 c 0,2.99303 1.18412,5.87022 3.30545,7.98145 l 75.70359,75.69844 v 40.4768 h 22.57382 v -45.14766 c 0,-2.99303 -1.18412,-5.87022 -3.30545,-7.98145 l -75.70359,-75.69842 v -42.51748 c 63.9523,-10.79313 112.86913,-66.42639 112.86913,-133.40487 0,-74.68454 -60.75841,-135.44294 -135.44295,-135.44294 z m 0,248.31209 H 152.48447 c -68.456742,0 -124.156044,-55.69931 -124.156044,-124.15605 0,-65.38412 51.163897,-119.75221 116.482224,-123.74841 3.26006,-0.20156 6.28842,-1.80385 8.26357,-4.40396 1.9954,-2.59497 2.7562,-5.93577 2.10118,-9.14034 -1.78875,-8.65662 -2.69068,-17.53019 -2.69068,-26.36752 0,-71.57064 58.22887,-129.79305 129.79305,-129.79305 71.56419,0 129.79304,58.22886 129.79304,129.79305 0,1.26473 -0.0907,2.51936 -0.18138,3.759 l -0.15619,2.57483 c -0.17132,3.48681 1.28488,6.86282 3.96047,9.13027 2.65043,2.25739 6.2078,3.16936 9.63928,2.44881 28.38885,-5.97097 54.44936,16.22993 54.42356,43.97382 -0.0453,0.33759 -0.20155,1.75856 -0.22674,2.10116 -0.21668,4.03104 1.7485,7.88071 5.14463,10.06754 3.39614,2.19185 7.68414,2.40354 11.29697,0.55428 16.17963,-8.30898 33.50344,-12.53144 51.54186,-12.53144 62.23411,0 112.86913,50.63502 112.86913,112.86913 0,62.23409 -50.63502,112.86912 -112.86913,112.86912 z"
         id="path40"
         style="stroke-width:1.28993;fill-opacity:1;fill:url(#linearGradient1804)" />
      <path
         d="m 314.26785,70.965562 c -10.25897,-3.637998 -21.01688,-5.487245 -31.98648,-5.487245 v 22.573825 c 8.38457,0 16.61305,1.410929 24.44812,4.187251 z"
         id="path42"
         style="stroke-width:1.28993;fill-opacity:1;fill:url(#linearGradient1804)" />
      <path
         d="m 250.30008,70.965562 c -38.25425,13.564935 -63.9523,49.908788 -63.9523,90.451388 h 22.57383 c 0,-31.00353 19.66115,-58.80289 48.91684,-69.177814 z"
         id="path44"
         style="stroke-width:1.28993;fill-opacity:1;fill:url(#linearGradient1804)" />
      <path
         d="m 626.5348,663.68456 h 22.57383 v 22.57383 H 626.5348 Z"
         id="path46"
         style="stroke-width:1.28993;fill-opacity:1;fill:url(#linearGradient1804)" />
      <path
         d="m 536.23951,663.68456 h 22.57382 v 22.57383 h -22.57382 z"
         id="path48"
         style="stroke-width:1.28993;fill-opacity:1;fill:url(#linearGradient1804)" />
      <path
         d="m 434.65728,663.68456 h 22.57384 v 22.57383 h -22.57384 z"
         id="path50"
         style="stroke-width:1.28993;fill-opacity:1;fill:url(#linearGradient1804)" />
      <path
         d="m 39.615339,663.68456 h 22.573825 v 22.57383 H 39.615339 Z"
         id="path52"
         style="stroke-width:1.28993;fill-opacity:1;fill:url(#linearGradient1804)" />
      <path
         d="m 129.91064,663.68456 h 22.57383 v 22.57383 h -22.57383 z"
         id="path54"
         style="stroke-width:1.28993;fill-opacity:1;fill:url(#linearGradient1804)" />
      <path
         d="m 231.49285,663.68456 h 22.57384 v 22.57383 h -22.57384 z"
         id="path56"
         style="stroke-width:1.28993;fill-opacity:1;fill:url(#linearGradient1804)" />
      <path
         d="m 333.07507,663.68456 h 22.57382 v 22.57383 h -22.57382 z"
         id="path58"
         style="stroke-width:1.28993;fill-opacity:1;fill:url(#linearGradient1804)" />
      <path
         d="m 287.92742,257.3557 h 22.57383 v 22.57383 h -22.57383 z"
         id="path60"
         style="stroke-width:1.28993;fill-opacity:1;fill:url(#linearGradient1804)" />
      <path
         d="m 287.92742,302.50335 h 22.57383 v 22.57383 h -22.57383 z"
         id="path62"
         style="stroke-width:1.28993;fill-opacity:1;fill:url(#linearGradient1804)" />
      <path
         d="m 287.92742,347.651 h 22.57383 v 22.57384 h -22.57383 z"
         id="path64"
         style="stroke-width:1.28993;fill-opacity:1;fill:url(#linearGradient1804)" />
      <path
         d="m 333.07507,257.3557 h 22.57382 v 22.57383 h -22.57382 z"
         id="path66"
         style="stroke-width:1.28993;fill-opacity:1;fill:url(#linearGradient1804)" />
      <path
         d="m 333.07507,302.50335 h 22.57382 v 22.57383 h -22.57382 z"
         id="path68"
         style="stroke-width:1.28993;fill-opacity:1;fill:url(#linearGradient1804)" />
      <path
         d="m 333.07507,347.651 h 22.57382 v 22.57384 h -22.57382 z"
         id="path70"
         style="stroke-width:1.28993;fill-opacity:1;fill:url(#linearGradient1804)" />
      <path
         d="m 378.22272,257.3557 h 22.57382 v 22.57383 h -22.57382 z"
         id="path72"
         style="stroke-width:1.28993;fill-opacity:1;fill:url(#linearGradient1804)" />
      <path
         d="m 378.22272,302.50335 h 22.57382 v 22.57383 h -22.57382 z"
         id="path74"
         style="stroke-width:1.28993;fill-opacity:1;fill:url(#linearGradient1804)" />
      <path
         d="m 378.22272,347.651 h 22.57382 v 22.57384 h -22.57382 z"
         id="path76"
         style="stroke-width:1.28993;fill-opacity:1;fill:url(#linearGradient1804)" />
      <path
         d="m 423.37037,392.79866 h -45.14765 v 22.57382 h 56.43456 c 6.24302,0 11.28692,-5.05898 11.28692,-11.28691 v -67.72148 h -22.57383 z"
         id="path78"
         style="stroke-width:1.28993;fill-opacity:1;fill:url(#linearGradient1804)" />
      <path
         d="m 321.78815,212.20806 h -67.72146 c -6.24302,0 -11.28692,5.05899 -11.28692,11.28691 v 67.72147 h 22.57383 v -56.43456 h 56.43455 z"
         id="path80"
         style="stroke-width:1.28993;fill-opacity:1;fill:url(#linearGradient1804)" />
      <path
         d="m 310.50125,392.79866 h 45.14764 v 22.57382 h -45.14764 z"
         id="path82"
         style="stroke-width:1.28993;fill-opacity:1;fill:url(#linearGradient1804)" />
      <path
         d="m 344.36197,212.20806 h 33.86075 v 22.57382 h -33.86075 z"
         id="path84"
         style="stroke-width:1.28993;fill-opacity:1;fill:url(#linearGradient1804)" />
      <path
         d="m 434.65728,212.20806 h -33.86074 v 22.57382 h 22.57383 v 79.00838 h 22.57383 v -90.29529 c 0,-6.22792 -5.0439,-11.28691 -11.28692,-11.28691 z"
         id="path86"
         style="stroke-width:1.28993;fill-opacity:1;fill:url(#linearGradient1804)" />
      <path
         d="m 265.3536,313.79026 h -22.57383 v 90.29531 c 0,6.22793 5.0439,11.28691 11.28692,11.28691 h 33.86073 V 392.79866 H 265.3536 Z"
         id="path88"
         style="stroke-width:1.28993;fill-opacity:1;fill:url(#linearGradient1804)" />
    </g>
  </g>
</svg>
